<mxfile host="app.diagrams.net" modified="2024-01-26T01:51:54.248Z" agent="Mozilla/5.0 (Macintosh; Intel Mac OS X 10_15_7) AppleWebKit/537.36 (KHTML, like Gecko) Chrome/120.0.0.0 Safari/537.36" etag="I8G4UNoygUkWx8DvCbd7" version="22.1.21" type="github">
  <diagram name="第 1 页" id="oDTyXBiXJACeo5WI_HqK">
    <mxGraphModel dx="1434" dy="1836" grid="1" gridSize="10" guides="1" tooltips="1" connect="1" arrows="1" fold="1" page="1" pageScale="1" pageWidth="827" pageHeight="1169" math="0" shadow="0">
      <root>
        <mxCell id="0" />
        <mxCell id="1" parent="0" />
        <mxCell id="6fm_u1FZgCYapgpHAqxW-2" value="可用离线总资源" style="rounded=0;whiteSpace=wrap;html=1;fillColor=#d5e8d4;strokeColor=#82b366;" parent="1" vertex="1">
          <mxGeometry x="70" y="-280" width="120" height="160" as="geometry" />
        </mxCell>
        <mxCell id="6fm_u1FZgCYapgpHAqxW-4" value="20%" style="text;html=1;strokeColor=none;fillColor=none;align=center;verticalAlign=middle;whiteSpace=wrap;rounded=0;" parent="1" vertex="1">
          <mxGeometry x="10" y="-160" width="60" height="30" as="geometry" />
        </mxCell>
        <mxCell id="6fm_u1FZgCYapgpHAqxW-5" value="50%" style="text;html=1;strokeColor=none;fillColor=none;align=center;verticalAlign=middle;whiteSpace=wrap;rounded=0;" parent="1" vertex="1">
          <mxGeometry x="10" y="-215" width="60" height="30" as="geometry" />
        </mxCell>
        <mxCell id="6fm_u1FZgCYapgpHAqxW-6" value="75%" style="text;html=1;strokeColor=none;fillColor=none;align=center;verticalAlign=middle;whiteSpace=wrap;rounded=0;" parent="1" vertex="1">
          <mxGeometry x="10" y="-260" width="60" height="30" as="geometry" />
        </mxCell>
        <mxCell id="6fm_u1FZgCYapgpHAqxW-7" value="100%" style="text;html=1;strokeColor=none;fillColor=none;align=center;verticalAlign=middle;whiteSpace=wrap;rounded=0;" parent="1" vertex="1">
          <mxGeometry x="10" y="-300" width="60" height="30" as="geometry" />
        </mxCell>
        <mxCell id="6fm_u1FZgCYapgpHAqxW-9" value="yarn&lt;br style=&quot;border-color: var(--border-color);&quot;&gt;&amp;nbsp;cgroup CPU Quota&lt;br style=&quot;border-color: var(--border-color);&quot;&gt;&lt;br style=&quot;border-color: var(--border-color);&quot;&gt;&lt;br style=&quot;border-color: var(--border-color);&quot;&gt;超分比例：2.0" style="rounded=0;whiteSpace=wrap;html=1;fillColor=#dae8fc;strokeColor=#6c8ebf;" parent="1" vertex="1">
          <mxGeometry x="429" y="-280" width="120" height="160" as="geometry" />
        </mxCell>
        <mxCell id="6fm_u1FZgCYapgpHAqxW-10" value="offline_common prediction" style="rounded=0;whiteSpace=wrap;html=1;fillColor=#f8cecc;strokeColor=#b85450;" parent="1" vertex="1">
          <mxGeometry x="269" y="-600" width="120" height="199" as="geometry" />
        </mxCell>
        <mxCell id="6fm_u1FZgCYapgpHAqxW-13" value="20%" style="text;html=1;strokeColor=none;fillColor=none;align=center;verticalAlign=middle;whiteSpace=wrap;rounded=0;" parent="1" vertex="1">
          <mxGeometry x="10" y="-441" width="60" height="30" as="geometry" />
        </mxCell>
        <mxCell id="6fm_u1FZgCYapgpHAqxW-14" value="50%" style="text;html=1;strokeColor=none;fillColor=none;align=center;verticalAlign=middle;whiteSpace=wrap;rounded=0;" parent="1" vertex="1">
          <mxGeometry x="10" y="-496" width="60" height="30" as="geometry" />
        </mxCell>
        <mxCell id="6fm_u1FZgCYapgpHAqxW-15" value="75%" style="text;html=1;strokeColor=none;fillColor=none;align=center;verticalAlign=middle;whiteSpace=wrap;rounded=0;" parent="1" vertex="1">
          <mxGeometry x="10" y="-541" width="60" height="30" as="geometry" />
        </mxCell>
        <mxCell id="6fm_u1FZgCYapgpHAqxW-16" value="100%" style="text;html=1;strokeColor=none;fillColor=none;align=center;verticalAlign=middle;whiteSpace=wrap;rounded=0;" parent="1" vertex="1">
          <mxGeometry x="10" y="-581" width="60" height="30" as="geometry" />
        </mxCell>
        <mxCell id="6fm_u1FZgCYapgpHAqxW-20" value="可用离线总资源" style="rounded=0;whiteSpace=wrap;html=1;fillColor=#d5e8d4;strokeColor=#82b366;" parent="1" vertex="1">
          <mxGeometry x="70" y="-561" width="120" height="160" as="geometry" />
        </mxCell>
        <mxCell id="6fm_u1FZgCYapgpHAqxW-21" value="offline_common prediction" style="rounded=0;whiteSpace=wrap;html=1;fillColor=#f8cecc;strokeColor=#b85450;" parent="1" vertex="1">
          <mxGeometry x="269" y="-151" width="120" height="31" as="geometry" />
        </mxCell>
        <mxCell id="6fm_u1FZgCYapgpHAqxW-22" value="驱逐yarn" style="text;html=1;align=center;verticalAlign=middle;resizable=0;points=[];autosize=1;strokeColor=none;fillColor=none;" parent="1" vertex="1">
          <mxGeometry x="589" y="-480" width="70" height="30" as="geometry" />
        </mxCell>
        <mxCell id="6fm_u1FZgCYapgpHAqxW-23" value="可用离线总资源" style="rounded=0;whiteSpace=wrap;html=1;fillColor=#d5e8d4;strokeColor=#82b366;" parent="1" vertex="1">
          <mxGeometry x="70" width="120" height="160" as="geometry" />
        </mxCell>
        <mxCell id="6fm_u1FZgCYapgpHAqxW-24" value="20%" style="text;html=1;strokeColor=none;fillColor=none;align=center;verticalAlign=middle;whiteSpace=wrap;rounded=0;" parent="1" vertex="1">
          <mxGeometry x="10" y="120" width="60" height="30" as="geometry" />
        </mxCell>
        <mxCell id="6fm_u1FZgCYapgpHAqxW-25" value="50%" style="text;html=1;strokeColor=none;fillColor=none;align=center;verticalAlign=middle;whiteSpace=wrap;rounded=0;" parent="1" vertex="1">
          <mxGeometry x="10" y="65" width="60" height="30" as="geometry" />
        </mxCell>
        <mxCell id="6fm_u1FZgCYapgpHAqxW-26" value="75%" style="text;html=1;strokeColor=none;fillColor=none;align=center;verticalAlign=middle;whiteSpace=wrap;rounded=0;" parent="1" vertex="1">
          <mxGeometry x="10" y="20" width="60" height="30" as="geometry" />
        </mxCell>
        <mxCell id="6fm_u1FZgCYapgpHAqxW-27" value="100%" style="text;html=1;strokeColor=none;fillColor=none;align=center;verticalAlign=middle;whiteSpace=wrap;rounded=0;" parent="1" vertex="1">
          <mxGeometry x="10" y="-20" width="60" height="30" as="geometry" />
        </mxCell>
        <mxCell id="6fm_u1FZgCYapgpHAqxW-28" value="yarn&lt;br&gt;&amp;nbsp;cgroup CPU Quota&lt;br&gt;&lt;br&gt;&lt;br&gt;" style="rounded=0;whiteSpace=wrap;html=1;fillColor=#dae8fc;strokeColor=#6c8ebf;" parent="1" vertex="1">
          <mxGeometry x="269" y="240" width="120" height="130" as="geometry" />
        </mxCell>
        <mxCell id="6fm_u1FZgCYapgpHAqxW-30" value="offline_common prediction" style="rounded=0;whiteSpace=wrap;html=1;fillColor=#f8cecc;strokeColor=#b85450;" parent="1" vertex="1">
          <mxGeometry x="269" y="129" width="120" height="31" as="geometry" />
        </mxCell>
        <mxCell id="6fm_u1FZgCYapgpHAqxW-31" value="offline_common prediction" style="rounded=0;whiteSpace=wrap;html=1;fillColor=#f8cecc;strokeColor=#b85450;" parent="1" vertex="1">
          <mxGeometry x="469" width="120" height="160" as="geometry" />
        </mxCell>
        <mxCell id="6fm_u1FZgCYapgpHAqxW-32" value="" style="endArrow=classic;startArrow=classic;html=1;rounded=0;" parent="1" edge="1">
          <mxGeometry width="50" height="50" relative="1" as="geometry">
            <mxPoint x="438" y="124" as="sourcePoint" />
            <mxPoint x="438" y="-5" as="targetPoint" />
          </mxGeometry>
        </mxCell>
        <mxCell id="6fm_u1FZgCYapgpHAqxW-33" value="20%" style="text;html=1;align=center;verticalAlign=middle;resizable=0;points=[];autosize=1;strokeColor=none;fillColor=none;" parent="1" vertex="1">
          <mxGeometry x="380" y="99" width="50" height="30" as="geometry" />
        </mxCell>
        <mxCell id="6fm_u1FZgCYapgpHAqxW-34" value="近乎&lt;br style=&quot;border-color: var(--border-color);&quot;&gt;100%" style="text;html=1;align=center;verticalAlign=middle;resizable=0;points=[];autosize=1;strokeColor=none;fillColor=none;" parent="1" vertex="1">
          <mxGeometry x="380" y="-5" width="50" height="40" as="geometry" />
        </mxCell>
        <mxCell id="6fm_u1FZgCYapgpHAqxW-36" value="可用离线总资源" style="rounded=0;whiteSpace=wrap;html=1;fillColor=#d5e8d4;strokeColor=#82b366;" parent="1" vertex="1">
          <mxGeometry x="70" y="240" width="120" height="160" as="geometry" />
        </mxCell>
        <mxCell id="6fm_u1FZgCYapgpHAqxW-37" value="offline_common prediction" style="rounded=0;whiteSpace=wrap;html=1;fillColor=#f8cecc;strokeColor=#b85450;" parent="1" vertex="1">
          <mxGeometry x="269" y="369" width="120" height="31" as="geometry" />
        </mxCell>
        <mxCell id="6fm_u1FZgCYapgpHAqxW-38" value="offline_common prediction" style="rounded=0;whiteSpace=wrap;html=1;fillColor=#f8cecc;strokeColor=#b85450;" parent="1" vertex="1">
          <mxGeometry x="469" y="270" width="120" height="130" as="geometry" />
        </mxCell>
        <mxCell id="6fm_u1FZgCYapgpHAqxW-39" value="" style="endArrow=classic;startArrow=classic;html=1;rounded=0;entryX=0.98;entryY=0.8;entryDx=0;entryDy=0;entryPerimeter=0;" parent="1" target="6fm_u1FZgCYapgpHAqxW-41" edge="1">
          <mxGeometry width="50" height="50" relative="1" as="geometry">
            <mxPoint x="438" y="370" as="sourcePoint" />
            <mxPoint x="438" y="241" as="targetPoint" />
          </mxGeometry>
        </mxCell>
        <mxCell id="6fm_u1FZgCYapgpHAqxW-40" value="20%" style="text;html=1;align=center;verticalAlign=middle;resizable=0;points=[];autosize=1;strokeColor=none;fillColor=none;" parent="1" vertex="1">
          <mxGeometry x="389" y="339" width="50" height="30" as="geometry" />
        </mxCell>
        <mxCell id="6fm_u1FZgCYapgpHAqxW-41" value="近乎&lt;br&gt;100%" style="text;html=1;align=center;verticalAlign=middle;resizable=0;points=[];autosize=1;strokeColor=none;fillColor=none;" parent="1" vertex="1">
          <mxGeometry x="389" y="235" width="50" height="40" as="geometry" />
        </mxCell>
        <mxCell id="6fm_u1FZgCYapgpHAqxW-42" value="yarn&lt;br&gt;&amp;nbsp;cgroup CPU Quota&lt;br&gt;" style="rounded=0;whiteSpace=wrap;html=1;fillColor=#dae8fc;strokeColor=#6c8ebf;" parent="1" vertex="1">
          <mxGeometry x="469" y="240" width="120" height="30" as="geometry" />
        </mxCell>
        <mxCell id="6fm_u1FZgCYapgpHAqxW-43" value="20%" style="text;html=1;strokeColor=none;fillColor=none;align=center;verticalAlign=middle;whiteSpace=wrap;rounded=0;" parent="1" vertex="1">
          <mxGeometry x="10" y="360" width="60" height="30" as="geometry" />
        </mxCell>
        <mxCell id="6fm_u1FZgCYapgpHAqxW-44" value="50%" style="text;html=1;strokeColor=none;fillColor=none;align=center;verticalAlign=middle;whiteSpace=wrap;rounded=0;" parent="1" vertex="1">
          <mxGeometry x="10" y="305" width="60" height="30" as="geometry" />
        </mxCell>
        <mxCell id="6fm_u1FZgCYapgpHAqxW-45" value="75%" style="text;html=1;strokeColor=none;fillColor=none;align=center;verticalAlign=middle;whiteSpace=wrap;rounded=0;" parent="1" vertex="1">
          <mxGeometry x="10" y="260" width="60" height="30" as="geometry" />
        </mxCell>
        <mxCell id="6fm_u1FZgCYapgpHAqxW-46" value="100%" style="text;html=1;strokeColor=none;fillColor=none;align=center;verticalAlign=middle;whiteSpace=wrap;rounded=0;" parent="1" vertex="1">
          <mxGeometry x="10" y="220" width="60" height="30" as="geometry" />
        </mxCell>
        <mxCell id="6fm_u1FZgCYapgpHAqxW-48" value="offline_common prediction" style="rounded=0;whiteSpace=wrap;html=1;fillColor=#f8cecc;strokeColor=#b85450;" parent="1" vertex="1">
          <mxGeometry x="429" y="-530" width="120" height="130" as="geometry" />
        </mxCell>
        <mxCell id="6fm_u1FZgCYapgpHAqxW-49" value="yarn&lt;br&gt;&amp;nbsp;cgroup CPU Quota" style="rounded=0;whiteSpace=wrap;html=1;fillColor=#dae8fc;strokeColor=#6c8ebf;" parent="1" vertex="1">
          <mxGeometry x="429" y="-560" width="120" height="30" as="geometry" />
        </mxCell>
        <mxCell id="6fm_u1FZgCYapgpHAqxW-51" value="20%" style="text;html=1;strokeColor=none;fillColor=none;align=center;verticalAlign=middle;whiteSpace=wrap;rounded=0;" parent="1" vertex="1">
          <mxGeometry x="10" y="-720" width="60" height="30" as="geometry" />
        </mxCell>
        <mxCell id="6fm_u1FZgCYapgpHAqxW-52" value="50%" style="text;html=1;strokeColor=none;fillColor=none;align=center;verticalAlign=middle;whiteSpace=wrap;rounded=0;" parent="1" vertex="1">
          <mxGeometry x="10" y="-775" width="60" height="30" as="geometry" />
        </mxCell>
        <mxCell id="6fm_u1FZgCYapgpHAqxW-53" value="75%" style="text;html=1;strokeColor=none;fillColor=none;align=center;verticalAlign=middle;whiteSpace=wrap;rounded=0;" parent="1" vertex="1">
          <mxGeometry x="10" y="-820" width="60" height="30" as="geometry" />
        </mxCell>
        <mxCell id="6fm_u1FZgCYapgpHAqxW-54" value="100%" style="text;html=1;strokeColor=none;fillColor=none;align=center;verticalAlign=middle;whiteSpace=wrap;rounded=0;" parent="1" vertex="1">
          <mxGeometry x="10" y="-860" width="60" height="30" as="geometry" />
        </mxCell>
        <mxCell id="6fm_u1FZgCYapgpHAqxW-56" value="可用离线总资源" style="rounded=0;whiteSpace=wrap;html=1;fillColor=#d5e8d4;strokeColor=#82b366;" parent="1" vertex="1">
          <mxGeometry x="70" y="-840" width="120" height="160" as="geometry" />
        </mxCell>
        <mxCell id="6fm_u1FZgCYapgpHAqxW-59" value="yarn&lt;br&gt;&amp;nbsp;cgroup CPU Quota&lt;br&gt;&lt;br&gt;&lt;br&gt;超分比例：2.0" style="rounded=0;whiteSpace=wrap;html=1;fillColor=#dae8fc;strokeColor=#6c8ebf;" parent="1" vertex="1">
          <mxGeometry x="269" y="-840" width="121" height="160" as="geometry" />
        </mxCell>
        <mxCell id="6fm_u1FZgCYapgpHAqxW-60" value="可用离线总资源&lt;br&gt;/sys/fs/cgroup/cpu/kubepods/offline/&lt;br&gt;cpuQuota = 30core" style="rounded=0;whiteSpace=wrap;html=1;fillColor=#d5e8d4;strokeColor=#82b366;" parent="1" vertex="1">
          <mxGeometry x="90" y="-1080" width="220" height="50" as="geometry" />
        </mxCell>
        <mxCell id="6fm_u1FZgCYapgpHAqxW-61" value="yarn&lt;br&gt;cpuQuota = 15core" style="rounded=0;whiteSpace=wrap;html=1;fillColor=#dae8fc;strokeColor=#6c8ebf;" parent="1" vertex="1">
          <mxGeometry x="370" y="-1120" width="160" height="40" as="geometry" />
        </mxCell>
        <mxCell id="6fm_u1FZgCYapgpHAqxW-62" value="offline_common&lt;br&gt;cpuQuota = 30core" style="rounded=0;whiteSpace=wrap;html=1;fillColor=#f8cecc;strokeColor=#b85450;" parent="1" vertex="1">
          <mxGeometry x="370" y="-1040" width="160" height="40" as="geometry" />
        </mxCell>
        <mxCell id="6fm_u1FZgCYapgpHAqxW-63" value="" style="curved=1;endArrow=classic;html=1;rounded=0;exitX=1;exitY=0.5;exitDx=0;exitDy=0;entryX=0;entryY=0.5;entryDx=0;entryDy=0;" parent="1" source="6fm_u1FZgCYapgpHAqxW-60" target="6fm_u1FZgCYapgpHAqxW-61" edge="1">
          <mxGeometry width="50" height="50" relative="1" as="geometry">
            <mxPoint x="390" y="-1040" as="sourcePoint" />
            <mxPoint x="440" y="-1090" as="targetPoint" />
            <Array as="points">
              <mxPoint x="330" y="-1100" />
            </Array>
          </mxGeometry>
        </mxCell>
        <mxCell id="6fm_u1FZgCYapgpHAqxW-64" value="" style="curved=1;endArrow=classic;html=1;rounded=0;exitX=1;exitY=0.5;exitDx=0;exitDy=0;entryX=0;entryY=0.5;entryDx=0;entryDy=0;" parent="1" source="6fm_u1FZgCYapgpHAqxW-60" target="6fm_u1FZgCYapgpHAqxW-62" edge="1">
          <mxGeometry width="50" height="50" relative="1" as="geometry">
            <mxPoint x="320" y="-1045" as="sourcePoint" />
            <mxPoint x="380" y="-1090" as="targetPoint" />
            <Array as="points">
              <mxPoint x="340" y="-1020" />
            </Array>
          </mxGeometry>
        </mxCell>
        <mxCell id="6fm_u1FZgCYapgpHAqxW-65" value="" style="shape=flexArrow;endArrow=classic;html=1;rounded=0;" parent="1" edge="1">
          <mxGeometry width="50" height="50" relative="1" as="geometry">
            <mxPoint x="329" y="175" as="sourcePoint" />
            <mxPoint x="329" y="220" as="targetPoint" />
          </mxGeometry>
        </mxCell>
        <mxCell id="e9eDXrmeyJTS1PGcT-Jd-1" value="offline总资源&lt;br&gt;&lt;br&gt;&lt;b&gt;10core&lt;/b&gt;" style="rounded=0;whiteSpace=wrap;html=1;fillColor=#dae8fc;strokeColor=#6c8ebf;" vertex="1" parent="1">
          <mxGeometry x="800" y="-800" width="120" height="80" as="geometry" />
        </mxCell>
        <mxCell id="e9eDXrmeyJTS1PGcT-Jd-7" style="edgeStyle=orthogonalEdgeStyle;rounded=0;orthogonalLoop=1;jettySize=auto;html=1;exitX=0;exitY=0;exitDx=70;exitDy=80;exitPerimeter=0;entryX=0.5;entryY=0;entryDx=0;entryDy=0;curved=1;" edge="1" parent="1" source="e9eDXrmeyJTS1PGcT-Jd-5" target="e9eDXrmeyJTS1PGcT-Jd-1">
          <mxGeometry relative="1" as="geometry" />
        </mxCell>
        <mxCell id="e9eDXrmeyJTS1PGcT-Jd-8" value="1.调度" style="edgeLabel;html=1;align=center;verticalAlign=middle;resizable=0;points=[];fontSize=16;" vertex="1" connectable="0" parent="e9eDXrmeyJTS1PGcT-Jd-7">
          <mxGeometry x="-0.0455" y="1" relative="1" as="geometry">
            <mxPoint as="offset" />
          </mxGeometry>
        </mxCell>
        <mxCell id="e9eDXrmeyJTS1PGcT-Jd-5" value="调度扩展" style="shape=cube;whiteSpace=wrap;html=1;boundedLbl=1;backgroundOutline=1;darkOpacity=0.05;darkOpacity2=0.1;fillColor=#d5e8d4;strokeColor=#82b366;" vertex="1" parent="1">
          <mxGeometry x="800" y="-1000" width="120" height="80" as="geometry" />
        </mxCell>
        <mxCell id="e9eDXrmeyJTS1PGcT-Jd-6" value="offline&lt;br&gt;Common&lt;br&gt;pod&lt;br&gt;&lt;br&gt;&lt;b&gt;12core&lt;/b&gt;" style="ellipse;whiteSpace=wrap;html=1;aspect=fixed;fillColor=#fff2cc;strokeColor=#d6b656;" vertex="1" parent="1">
          <mxGeometry x="910" y="-910" width="80" height="80" as="geometry" />
        </mxCell>
        <mxCell id="e9eDXrmeyJTS1PGcT-Jd-11" value="offline&lt;br&gt;Common&lt;br&gt;pod&lt;br&gt;&lt;br&gt;&lt;b&gt;12core&lt;/b&gt;" style="ellipse;whiteSpace=wrap;html=1;aspect=fixed;fillColor=#fff2cc;strokeColor=#d6b656;" vertex="1" parent="1">
          <mxGeometry x="1200" y="-671" width="80" height="80" as="geometry" />
        </mxCell>
        <mxCell id="e9eDXrmeyJTS1PGcT-Jd-30" style="edgeStyle=orthogonalEdgeStyle;rounded=0;orthogonalLoop=1;jettySize=auto;html=1;exitX=1;exitY=0.5;exitDx=0;exitDy=0;elbow=vertical;curved=1;" edge="1" parent="1" source="e9eDXrmeyJTS1PGcT-Jd-13" target="e9eDXrmeyJTS1PGcT-Jd-28">
          <mxGeometry relative="1" as="geometry" />
        </mxCell>
        <mxCell id="e9eDXrmeyJTS1PGcT-Jd-31" value="create failed：&lt;br&gt;set cupQuota Error" style="edgeLabel;html=1;align=center;verticalAlign=middle;resizable=0;points=[];fontSize=12;" vertex="1" connectable="0" parent="e9eDXrmeyJTS1PGcT-Jd-30">
          <mxGeometry x="0.4533" y="-26" relative="1" as="geometry">
            <mxPoint x="6" y="9" as="offset" />
          </mxGeometry>
        </mxCell>
        <mxCell id="e9eDXrmeyJTS1PGcT-Jd-32" value="❌" style="edgeLabel;html=1;align=center;verticalAlign=middle;resizable=0;points=[];" vertex="1" connectable="0" parent="e9eDXrmeyJTS1PGcT-Jd-30">
          <mxGeometry x="0.7439" y="-4" relative="1" as="geometry">
            <mxPoint as="offset" />
          </mxGeometry>
        </mxCell>
        <mxCell id="e9eDXrmeyJTS1PGcT-Jd-13" value="" style="shape=image;verticalLabelPosition=bottom;labelBackgroundColor=default;verticalAlign=top;aspect=fixed;imageAspect=0;image=data:image/png,iVBORw0KGgoAAAANSUhEUgAAAOAAAADgCAMAAAAt85rTAAAAz1BMVEX///8klu0oUZ4kluwljOImabkkkecoTpwklu4oVKEoUJ0kl+0nYrIkmfEkkOaaq86BmsgnXascTp8mcMEkiN7y9flohbslg9cmdccnXq3Q2OknZbQmeMooV6Ulf9IcTZ87Y6rc4+8AkOzt8fiQpMy7x9/X3+3DzuMARZxOcLGxwdwgVKZ8lMTw8vhxjMAAPZimt9eezfZGa69hf7lXd7RDoe9lsfFyufPe7fyVxvS42PcALpQ/p+9ztvKXzfWPrNHM5fq63PgAIZGfvuKLncXpQowZAAANF0lEQVR4nO2cC3vaOhKGkXyVjAELE3PxBQKEW0oJJO05PWe3Pbv9/79pR7YBG2xDWjBJVm/6EJgYqs8ja2YkmUpFIBAIBAKBQCAQCAQCgUAgEAgEAoFAIBAIBAKBQCAQCAQCgUAgEAgEAoFAIBAI3jmtQ27doMsynC/vDqh3b92oSzIKmMaYpmkMa/wRXgX9wa1bdTkGz5TQEI1uIcHq1s26HN0+tWomQrqOYsw2Dhq3btbl6PaxYnJd0k6hTdmHEkhBYM2RkO7ICMk20j+eQMNwLRDnuchs9mof0YNmm9hI0prI7Fmy8dEEajuBbcPsdeQP6EHDiAWGHvyAAnce1D+qB83/Fw9+VIGG2cQ2UuNR9CMKRE6zhiTFR4bbrH3AQA+pmokkxDM20/xoqdpDH/eiVFvnP/Db9Om7SbbH9ZM0LOIp7RQWeSceHC6txWJB4OcAQrg5tBMOJnhL+Iy8Ew8+B/gQruakibwXgeCeajNFB9T00iYLTMqh6Z10UUYseVfFImQYuuPhTmgywn8cMFXV+ID4QP/0KDoelqLgBAvcgzIdxn3JDCMAlLMWhnpvFw90E5lgCsOEjl4RJsbWbFyOhkIY7qlIbtd01fVNiOWSHgrU5aaMwATea6soEgiB3kBNB0KEq54W+DBjEElu70TGO59DHVTrdCDd1ECNBwINR/NRzVNU5BJZDwWmUrWTBe+nJYNxKehPyhKSR+hBhzhI7lQTAnVHc3TV4gI9OeqiPNnW0bnl0jwgxLUwWz+UpSQH7kH9WKDJBdZigfpOIAKB5lkC+1hrmrKC8XpelpRsFluBtZ1AKxRIHZN7UE958GyB3Sm24IpFoDC47Rx/gQdNNdODZ3XRBiO+wRPXJmHPN53jzxBoFQsMPWjYuEjgw1rr1MJ4qfZocHfLsTTqojjZReNBxs8SCKOoeUbBW1/gZpQQ6HYHe7e8DMNR1O7YqKZAqHOtWCCyLdDca+qGz4NiKNCFnilZfOJXOTHxO9xofJI4zJBM2WOzG3bSMA4inoep4cMuk0ma7DDQS+ErKTIXdtGHNe2Zu3UaBS9uuBDFcEcKy9hde8CD1ZqOUibQbO5NvOYt9ODEg0tV2r5dxrh/u2gI1YQLiSgQPkhIbRLi+ZGJv0aRybLDA1BogB+laPlsHsAQtT8/TRqMylHTms+O61pC4xqWxGUfPFC8K3L5A43thEQPUdVLvIPPuttGvHqg1fYVCqR8eF2OwPGCZZSy5MiQaTt+Hz34rKAfKWyNmJbQx909LWXTQmsECWI1ScfjDU2buMu8AxNgpUxVrvjoqCCKB60Go0mByKXTUtKZ1iPTHDVFDTqanTb5HracQxPp1NImlxIrbVHbOKhvBeKUQJ8E9VZ3vKrXR/XVuHs1b8J/rElRUa5HxatuWrgqRcNjuAAPJh4H1biyjUy7gjeqiHU4EsolbooiHYrKYlvbC6SJWQII9h5h0+k0CIEn69XwKiIjgaoPMdh2kK76KjLDyYiaX0OqAyYZhs8o0HMTciA3kx01CvRIhuNR9GZVjwTKvh59HrwZYv9W4CjQ1KQHbSsapDyAX8wssJbjKwT/SKBMIJ1UPMhfiBwJjKqJatXUEwUvryY6imQkqwk5WgBVwmSbC3ThWrP55/UsdS+wsgo0OSlQ9qiltH3fAXy/3YHhiS1ml6+FW48BjG4yacYCsR120axqQt+WS0Y6F5X25VIoEE5YJNBLChwzyGQTXVT1nZq6C/yoZrsdDbP+xVPUrQcjgfpOYE5FvxOYXQ9GAjM9GK9l7BUaycQIRgHTrCmEWpfupVxglgdfJ9A4LXDwzKxEpE9q29l8HNxdWF8YJlDiGizsopqDjudkkkvYBQJbPzFpZ6hKoFZxcPEE9VggyvNgquA1j69Bo1Ag76OdWpE+06dsc2l9oUApr4vmzMmgo0HGiAvegkGmUmkExS6E9NS7fHITDTI2bm4bJG8F4kMPoqyKHvNrMKrokx7EGQKHAcbJgfTAf1BgXqPAiAYZ1bWR7vj8iRoLDAO970CV58YFr1FzZR35EPttfzuzbbsQveHNpuOrsQdlVzJUV44+Lymw0sfYyr8AYQi9u1qg57natnLVeaAPA1Q4kuuGsavoeUJnGNEGyjhVCw8z4qNoZIKsDV5yk7kX+FDfeJCwqFniuP+qhM0uPhHVarU+8WQ7qmxRXL2qPNlG29I2NEFmbdkoLm+jv/BkW92beM3Lk20k7Y8CUxsEtj4NH0bWNGCYVOWs8MBPlwbevbD/hvP6CJhh7CkpOpAhWmkTr6DSpp4HR1WPjsKd9FFgeV4+9xdQk1Gq+Jn+00256WH2fOEBpnvHwkQ+c6U2LFx57cp/0bi6jWpZGv6iqaqYhsdtj6KRgdLIxFj43FJcNWOE0U1TdnsUB5fWV+9TrRwo8apNX04mnqEuDtQr7R6UFUEwv3CtNPyMiWLLZVBDoZT0mNLuKc2mUvX4CWC4/3jx4aUOQTcaJH+Nk29E22O4HgkdoHbCXfpQBTJvvbzG7RZ3rLOrzo7++6tjOlDO8+t/valPHq6ySrFh1Vo4mZnDBUTnfQSfDWlTb9SddAfDT9cQFwuEXGPfiJzwlGv/PZxrBPVDgZD9X6n5p2kmE7jrcMf4Vhg9U+G1ZRtQNvSvPem75AK396yUPco4JexKbDDILfN8le3Y9CHx7185N2YVL66+sjRinoOu3xsz9Tkau7v6sgQEeqe0vpn+b1Rw4PXXr+dT7PPVyyyJe7eeOAFS1ktJyrAlLKZP6OP115W6IPC3HSilmn7upym0jL1cgylt79qXWhTJF/MKcz66Y2mbMhYGp7S5a1yZYULt4WkpO0jCrSJSvLoenlqU/JVAyniW9TLnPKWtuk+xV8rK7jP2VPTqayhjADlHZILLT73ksGRENk615uLwyetGOd8nsAqob0rHo/gppPRzKcNcgN3B/ZI2GkKc6JmFzUpNoWxr89QfXz04qQoOSoiBIcMZ1lRdSowqcXMzEnDdePny9cuLoaP8IUeKInzxNe0Ttiltl+Eq0JzzzrtuPPFWDZ/us5t9TM5BDiHlbB0JmXi0aSbu8s/n/iuo4/s8vtyfd0ZyBJodzGal6asMZrQapaL68dxM6rXRqszXa3DiHy+7ObJfyA1Ml7IyN+C1HpknG8ezekfNv/+z0vWYNWm1Kk/nujALh2Cr1K3adUz840h47Jr7b5XVlJDZZlz59uv1o2Fb1KuX+pU6kz5Wzql4758qY4YJ/gsE/oYHC/daXoXhWvOKxtGtL/W/K63lNPh896nyr/vjP5+H6RI8LXsf+iSgynY9Sypo8f2/4djvcPn8ef96ZbG+plZaCpOgj71aKs7ntP3lR3j4jxx9Zyh2PGzd4LazekDdnHQtJVd/+fr07ekrBAmpyNP5+Bb2rj3Tm8Vgga3ifHSrUDe2S/O/guzh4PrzaBm0HsGFZzbynGmNfH1seQN5QHeNPbtAlOrYvz9z6oP/lrf6TrlRuH8ss5dKyLSbxDtXRl5PNx0L/Hezu1yGa2rZcZc7GD90W/Egdu32RWStY5ycwUBm2yO3818lvJuherhDjo8mqmNpmGHr+/2v5tYcA7ka9i6+Q/I1fNowqJrM3bihm0itOX6zSjDzNvUBJC/SwWR1JtmXqq1Agl1uAnrEYI2p68iqHu3qkP220oOuSbTPz+E973+cXQQeYTodjPs3v618FRDiWVa1B1Qti2BKafB5upnEmeOPl7MG0iMn6zz9DEqs4PNojfi9ShrTKNUYCwK+r+N7si79xziebjqJDtkLxdbP298zDwr53e3r59l6PXvebB7r3cNGPRW4ME9uzcWY9d/Id1UOPQy19uDhYTDMvvnkz9dehqZTJSSYPbyVr4wdL1hhrjj8cn84ubh/dexDs8Y3DwabN/RlqsMNY4uidP+bocdTvVLB7qFIs6PA5by4XfKSSXcT4Gm9YER4Ms4q5k3VbsIwzGa3KI4KGYwWmG1W+RL/OSMe6rKvWJgEd6u35b6IuccYLhj3khdipvNMtekRiKHBjVOXXIaPfYI/r+uDPDf+82Lk7U9Qa7Zb5fsj+5tVLG8yaqzemtLuqA+XIuuPcr6YaPjvv4/7qcnvLVA6FHJz9rzf+TlczRvdG3/pyDGtyU9rykDj3fd5ZhD78efLvqPy7FW1fVfxMOX3N6YuveFq/Dh4cwJB4nCy7E8ZJGz99WY5mgwOZQ6/fTG4Mj3Kyy0PMnMtmFqN8cGh80Zj9BYStSzGy3XfA5E4+Pyfv8jscTXme1djBoP/us2eFW43x5QxYvVnjbc4ahYymKx+Pm76FqOEBdPP02kASgi/2RbycRZttmbMWj8vf9bn17uD+rq0Bt3uuH639qIbpQMWEt00HSxmy/p48pA74r4fWsPBw2S+qo8ajcbjY6Pxk9/1Dso+vVO3CQQCgUAgEAgEAoFAIBAIBAKBQCAQCAQCgUAgEAgEAoFAIBAIBAKBIJ//AQnPSkBrVysyAAAAAElFTkSuQmCC;" vertex="1" parent="1">
          <mxGeometry x="1080" y="-671" width="94" height="94" as="geometry" />
        </mxCell>
        <mxCell id="e9eDXrmeyJTS1PGcT-Jd-16" value="offline_common1 10core" style="rounded=0;whiteSpace=wrap;html=1;fillColor=#f8cecc;strokeColor=#b85450;" vertex="1" parent="1">
          <mxGeometry x="960" y="-800" width="120" height="80" as="geometry" />
        </mxCell>
        <mxCell id="e9eDXrmeyJTS1PGcT-Jd-17" value="yarn&lt;br&gt;&amp;nbsp;3core" style="rounded=0;whiteSpace=wrap;html=1;fillColor=#dae8fc;strokeColor=#6c8ebf;" vertex="1" parent="1">
          <mxGeometry x="1120" y="-750" width="120" height="30" as="geometry" />
        </mxCell>
        <mxCell id="e9eDXrmeyJTS1PGcT-Jd-22" value="offline总资源&lt;br&gt;&lt;br&gt;&lt;b&gt;10core&lt;/b&gt;" style="rounded=0;whiteSpace=wrap;html=1;fillColor=#dae8fc;strokeColor=#6c8ebf;" vertex="1" parent="1">
          <mxGeometry x="800" y="-1120" width="120" height="80" as="geometry" />
        </mxCell>
        <mxCell id="e9eDXrmeyJTS1PGcT-Jd-23" value="offline_common 10core" style="rounded=0;whiteSpace=wrap;html=1;fillColor=#f8cecc;strokeColor=#b85450;" vertex="1" parent="1">
          <mxGeometry x="960" y="-1120" width="120" height="80" as="geometry" />
        </mxCell>
        <mxCell id="e9eDXrmeyJTS1PGcT-Jd-24" value="yarn&lt;br&gt;&amp;nbsp;3core" style="rounded=0;whiteSpace=wrap;html=1;fillColor=#dae8fc;strokeColor=#6c8ebf;" vertex="1" parent="1">
          <mxGeometry x="1120" y="-1070" width="120" height="30" as="geometry" />
        </mxCell>
        <mxCell id="e9eDXrmeyJTS1PGcT-Jd-25" value="offline总资源&lt;br&gt;&lt;br&gt;&lt;b&gt;10core&lt;/b&gt;" style="rounded=0;whiteSpace=wrap;html=1;fillColor=#dae8fc;strokeColor=#6c8ebf;" vertex="1" parent="1">
          <mxGeometry x="800" y="-481" width="120" height="80" as="geometry" />
        </mxCell>
        <mxCell id="e9eDXrmeyJTS1PGcT-Jd-26" value="offline_common1 10core" style="rounded=0;whiteSpace=wrap;html=1;fillColor=#f8cecc;strokeColor=#b85450;" vertex="1" parent="1">
          <mxGeometry x="960" y="-481" width="120" height="80" as="geometry" />
        </mxCell>
        <mxCell id="e9eDXrmeyJTS1PGcT-Jd-27" value="yarn&lt;br&gt;&amp;nbsp;3core" style="rounded=0;whiteSpace=wrap;html=1;fillColor=#dae8fc;strokeColor=#6c8ebf;" vertex="1" parent="1">
          <mxGeometry x="1120" y="-431" width="120" height="30" as="geometry" />
        </mxCell>
        <mxCell id="e9eDXrmeyJTS1PGcT-Jd-28" value="offline_common2 &lt;br&gt;&lt;br&gt;&lt;b&gt;&lt;font style=&quot;font-size: 16px;&quot;&gt;12core&lt;/font&gt;&lt;/b&gt;" style="rounded=0;whiteSpace=wrap;html=1;fillColor=#fff2cc;strokeColor=#d6b656;dashed=1;" vertex="1" parent="1">
          <mxGeometry x="1280" y="-501" width="120" height="100" as="geometry" />
        </mxCell>
        <mxCell id="e9eDXrmeyJTS1PGcT-Jd-29" value="" style="endArrow=none;dashed=1;html=1;dashPattern=1 3;strokeWidth=2;rounded=0;" edge="1" parent="1">
          <mxGeometry width="50" height="50" relative="1" as="geometry">
            <mxPoint x="770" y="-481" as="sourcePoint" />
            <mxPoint x="1490" y="-481" as="targetPoint" />
          </mxGeometry>
        </mxCell>
        <mxCell id="e9eDXrmeyJTS1PGcT-Jd-33" value="" style="shape=flexArrow;endArrow=classic;html=1;rounded=0;" edge="1" parent="1">
          <mxGeometry width="50" height="50" relative="1" as="geometry">
            <mxPoint x="1020" y="-1020" as="sourcePoint" />
            <mxPoint x="1019.5" y="-980" as="targetPoint" />
          </mxGeometry>
        </mxCell>
        <mxCell id="e9eDXrmeyJTS1PGcT-Jd-35" value="" style="shape=flexArrow;endArrow=classic;html=1;rounded=0;" edge="1" parent="1">
          <mxGeometry width="50" height="50" relative="1" as="geometry">
            <mxPoint x="1020" y="-691" as="sourcePoint" />
            <mxPoint x="1019.5" y="-651" as="targetPoint" />
          </mxGeometry>
        </mxCell>
        <mxCell id="e9eDXrmeyJTS1PGcT-Jd-51" value="offline总资源&lt;br&gt;&lt;b&gt;1 core&lt;/b&gt;" style="rounded=0;whiteSpace=wrap;html=1;fillColor=#dae8fc;strokeColor=#6c8ebf;" vertex="1" parent="1">
          <mxGeometry x="2219" y="-1123.5" width="90" height="50" as="geometry" />
        </mxCell>
        <mxCell id="e9eDXrmeyJTS1PGcT-Jd-66" style="edgeStyle=entityRelationEdgeStyle;rounded=0;orthogonalLoop=1;jettySize=auto;html=1;exitX=0;exitY=0.5;exitDx=0;exitDy=0;entryX=1;entryY=0;entryDx=0;entryDy=37.5;entryPerimeter=0;" edge="1" parent="1" source="e9eDXrmeyJTS1PGcT-Jd-61" target="e9eDXrmeyJTS1PGcT-Jd-65">
          <mxGeometry relative="1" as="geometry" />
        </mxCell>
        <mxCell id="e9eDXrmeyJTS1PGcT-Jd-61" value="wcloudAgent" style="shape=process;whiteSpace=wrap;html=1;backgroundOutline=1;fillColor=#b0e3e6;strokeColor=#0e8088;" vertex="1" parent="1">
          <mxGeometry x="2204" y="-1153.5" width="120" height="30" as="geometry" />
        </mxCell>
        <mxCell id="e9eDXrmeyJTS1PGcT-Jd-68" style="edgeStyle=orthogonalEdgeStyle;rounded=0;orthogonalLoop=1;jettySize=auto;html=1;entryX=1;entryY=0;entryDx=0;entryDy=37.5;entryPerimeter=0;" edge="1" parent="1" source="e9eDXrmeyJTS1PGcT-Jd-62" target="e9eDXrmeyJTS1PGcT-Jd-65">
          <mxGeometry relative="1" as="geometry">
            <mxPoint x="1954" y="-910.5" as="targetPoint" />
          </mxGeometry>
        </mxCell>
        <mxCell id="e9eDXrmeyJTS1PGcT-Jd-95" value="&lt;font style=&quot;font-size: 13px;&quot;&gt;1.给Node打Annotation&lt;br style=&quot;border-color: var(--border-color); background-color: rgb(251, 251, 251);&quot;&gt;&lt;span style=&quot;background-color: rgb(251, 251, 251);&quot;&gt;msg：offline总资源&lt;/span&gt;&lt;/font&gt;" style="edgeLabel;html=1;align=center;verticalAlign=middle;resizable=0;points=[];" vertex="1" connectable="0" parent="e9eDXrmeyJTS1PGcT-Jd-68">
          <mxGeometry x="-0.0836" y="-3" relative="1" as="geometry">
            <mxPoint x="19" y="3" as="offset" />
          </mxGeometry>
        </mxCell>
        <mxCell id="e9eDXrmeyJTS1PGcT-Jd-62" value="wcloudAgent" style="shape=process;whiteSpace=wrap;html=1;backgroundOutline=1;fillColor=#b0e3e6;strokeColor=#0e8088;" vertex="1" parent="1">
          <mxGeometry x="2204" y="-938.5" width="120" height="30" as="geometry" />
        </mxCell>
        <mxCell id="e9eDXrmeyJTS1PGcT-Jd-67" style="edgeStyle=entityRelationEdgeStyle;rounded=0;orthogonalLoop=1;jettySize=auto;html=1;exitX=0;exitY=0.5;exitDx=0;exitDy=0;entryX=1;entryY=0;entryDx=0;entryDy=37.5;entryPerimeter=0;" edge="1" parent="1" source="e9eDXrmeyJTS1PGcT-Jd-63" target="e9eDXrmeyJTS1PGcT-Jd-65">
          <mxGeometry relative="1" as="geometry" />
        </mxCell>
        <mxCell id="e9eDXrmeyJTS1PGcT-Jd-63" value="wcloudAgent" style="shape=process;whiteSpace=wrap;html=1;backgroundOutline=1;fillColor=#b0e3e6;strokeColor=#0e8088;" vertex="1" parent="1">
          <mxGeometry x="2204" y="-724.5" width="120" height="30" as="geometry" />
        </mxCell>
        <mxCell id="e9eDXrmeyJTS1PGcT-Jd-65" value="API-Server" style="shape=cylinder3;whiteSpace=wrap;html=1;boundedLbl=1;backgroundOutline=1;size=15;fillColor=#f5f5f5;fontColor=#333333;strokeColor=#666666;" vertex="1" parent="1">
          <mxGeometry x="1919" y="-961.5" width="90" height="60" as="geometry" />
        </mxCell>
        <mxCell id="e9eDXrmeyJTS1PGcT-Jd-73" style="edgeStyle=orthogonalEdgeStyle;rounded=0;orthogonalLoop=1;jettySize=auto;html=1;exitX=0;exitY=0;exitDx=120;exitDy=50;exitPerimeter=0;curved=1;entryX=0.5;entryY=1;entryDx=0;entryDy=0;" edge="1" parent="1" source="e9eDXrmeyJTS1PGcT-Jd-75" target="e9eDXrmeyJTS1PGcT-Jd-87">
          <mxGeometry relative="1" as="geometry">
            <mxPoint x="2214" y="-604.5" as="targetPoint" />
          </mxGeometry>
        </mxCell>
        <mxCell id="e9eDXrmeyJTS1PGcT-Jd-74" value="4.选出物理机进行部署" style="edgeLabel;html=1;align=center;verticalAlign=middle;resizable=0;points=[];fontSize=16;" vertex="1" connectable="0" parent="e9eDXrmeyJTS1PGcT-Jd-73">
          <mxGeometry x="-0.0455" y="1" relative="1" as="geometry">
            <mxPoint as="offset" />
          </mxGeometry>
        </mxCell>
        <mxCell id="e9eDXrmeyJTS1PGcT-Jd-75" value="调度扩展" style="shape=cube;whiteSpace=wrap;html=1;boundedLbl=1;backgroundOutline=1;darkOpacity=0.05;darkOpacity2=0.1;fillColor=#d5e8d4;strokeColor=#82b366;" vertex="1" parent="1">
          <mxGeometry x="1904" y="-639.5" width="120" height="80" as="geometry" />
        </mxCell>
        <mxCell id="e9eDXrmeyJTS1PGcT-Jd-76" value="offline&lt;br&gt;Common&lt;br&gt;pod&lt;br&gt;&lt;br&gt;&lt;b&gt;12core&lt;/b&gt;" style="ellipse;whiteSpace=wrap;html=1;aspect=fixed;fillColor=#fff2cc;strokeColor=#d6b656;" vertex="1" parent="1">
          <mxGeometry x="1824" y="-988.5" width="80" height="80" as="geometry" />
        </mxCell>
        <mxCell id="e9eDXrmeyJTS1PGcT-Jd-77" value="offline_common1 10core" style="rounded=0;whiteSpace=wrap;html=1;fillColor=#f8cecc;strokeColor=#b85450;" vertex="1" parent="1">
          <mxGeometry x="2524" y="-696" width="90" height="50" as="geometry" />
        </mxCell>
        <mxCell id="e9eDXrmeyJTS1PGcT-Jd-78" value="yarn&lt;br&gt;&amp;nbsp;3core" style="rounded=0;whiteSpace=wrap;html=1;fillColor=#dae8fc;strokeColor=#6c8ebf;" vertex="1" parent="1">
          <mxGeometry x="2653" y="-676" width="89" height="30" as="geometry" />
        </mxCell>
        <mxCell id="e9eDXrmeyJTS1PGcT-Jd-79" value="" style="shape=flexArrow;endArrow=classic;html=1;rounded=0;" edge="1" parent="1">
          <mxGeometry width="50" height="50" relative="1" as="geometry">
            <mxPoint x="1779" y="-946" as="sourcePoint" />
            <mxPoint x="1819" y="-946" as="targetPoint" />
          </mxGeometry>
        </mxCell>
        <mxCell id="e9eDXrmeyJTS1PGcT-Jd-80" value="2.下发PodYaml" style="text;html=1;align=center;verticalAlign=middle;resizable=0;points=[];autosize=1;strokeColor=none;fillColor=none;fontSize=14;" vertex="1" parent="1">
          <mxGeometry x="1658" y="-961.5" width="120" height="30" as="geometry" />
        </mxCell>
        <mxCell id="e9eDXrmeyJTS1PGcT-Jd-82" value="" style="endArrow=classic;startArrow=classic;html=1;rounded=0;exitX=0.5;exitY=1;exitDx=0;exitDy=0;exitPerimeter=0;" edge="1" parent="1" source="e9eDXrmeyJTS1PGcT-Jd-65" target="e9eDXrmeyJTS1PGcT-Jd-75">
          <mxGeometry width="50" height="50" relative="1" as="geometry">
            <mxPoint x="2284" y="-805.5" as="sourcePoint" />
            <mxPoint x="2284" y="-855.5" as="targetPoint" />
          </mxGeometry>
        </mxCell>
        <mxCell id="e9eDXrmeyJTS1PGcT-Jd-83" value="watch" style="edgeLabel;html=1;align=center;verticalAlign=middle;resizable=0;points=[];fontSize=14;" vertex="1" connectable="0" parent="e9eDXrmeyJTS1PGcT-Jd-82">
          <mxGeometry x="0.1593" y="-3" relative="1" as="geometry">
            <mxPoint x="-16" y="-3" as="offset" />
          </mxGeometry>
        </mxCell>
        <mxCell id="e9eDXrmeyJTS1PGcT-Jd-84" value="3. 调度offlineComon业务Pod&lt;br style=&quot;font-size: 14px;&quot;&gt;&lt;br style=&quot;font-size: 14px;&quot;&gt;3.1实时感知Node信息，&lt;br style=&quot;font-size: 14px;&quot;&gt;即可知Node- Annotation中offline总资源&lt;br style=&quot;font-size: 14px;&quot;&gt;&lt;br style=&quot;font-size: 14px;&quot;&gt;3.2 根据当前剩余资源以及offline资源&lt;br style=&quot;font-size: 14px;&quot;&gt;是否够用" style="text;html=1;align=left;verticalAlign=middle;resizable=0;points=[];autosize=1;strokeColor=none;fillColor=none;fontSize=14;" vertex="1" parent="1">
          <mxGeometry x="1658" y="-813.5" width="270" height="130" as="geometry" />
        </mxCell>
        <mxCell id="e9eDXrmeyJTS1PGcT-Jd-85" value="offline总资源&lt;br&gt;&lt;b&gt;2 core&lt;/b&gt;" style="rounded=0;whiteSpace=wrap;html=1;fillColor=#dae8fc;strokeColor=#6c8ebf;" vertex="1" parent="1">
          <mxGeometry x="2219" y="-908.5" width="90" height="50" as="geometry" />
        </mxCell>
        <mxCell id="e9eDXrmeyJTS1PGcT-Jd-86" value="offline总资源&lt;br&gt;&lt;b&gt;13 core&lt;/b&gt;" style="rounded=0;whiteSpace=wrap;html=1;fillColor=#dae8fc;strokeColor=#6c8ebf;" vertex="1" parent="1">
          <mxGeometry x="2219" y="-694.5" width="90" height="50" as="geometry" />
        </mxCell>
        <mxCell id="e9eDXrmeyJTS1PGcT-Jd-87" value="offlineCgroup资源情况&lt;br&gt;&lt;br&gt;&lt;br&gt;&lt;br&gt;&lt;br&gt;&lt;br&gt;&lt;br&gt;&lt;br&gt;&lt;br&gt;&lt;br&gt;&lt;br&gt;&lt;br&gt;" style="rounded=0;whiteSpace=wrap;html=1;fillColor=none;" vertex="1" parent="1">
          <mxGeometry x="2384" y="-723.5" width="500" height="89" as="geometry" />
        </mxCell>
        <mxCell id="e9eDXrmeyJTS1PGcT-Jd-88" value="" style="shape=image;verticalLabelPosition=bottom;labelBackgroundColor=default;verticalAlign=top;aspect=fixed;imageAspect=0;image=data:image/png,iVBORw0KGgoAAAANSUhEUgAAAOAAAADgCAMAAAAt85rTAAAAz1BMVEX///8klu0oUZ4kluwljOImabkkkecoTpwklu4oVKEoUJ0kl+0nYrIkmfEkkOaaq86BmsgnXascTp8mcMEkiN7y9flohbslg9cmdccnXq3Q2OknZbQmeMooV6Ulf9IcTZ87Y6rc4+8AkOzt8fiQpMy7x9/X3+3DzuMARZxOcLGxwdwgVKZ8lMTw8vhxjMAAPZimt9eezfZGa69hf7lXd7RDoe9lsfFyufPe7fyVxvS42PcALpQ/p+9ztvKXzfWPrNHM5fq63PgAIZGfvuKLncXpQowZAAANF0lEQVR4nO2cC3vaOhKGkXyVjAELE3PxBQKEW0oJJO05PWe3Pbv9/79pR7YBG2xDWjBJVm/6EJgYqs8ja2YkmUpFIBAIBAKBQCAQCAQCgUAgEAgEAoFAIBAIBAKBQCAQCAQCgUAgEAgEAoFAIBAI3jmtQ27doMsynC/vDqh3b92oSzIKmMaYpmkMa/wRXgX9wa1bdTkGz5TQEI1uIcHq1s26HN0+tWomQrqOYsw2Dhq3btbl6PaxYnJd0k6hTdmHEkhBYM2RkO7ICMk20j+eQMNwLRDnuchs9mof0YNmm9hI0prI7Fmy8dEEajuBbcPsdeQP6EHDiAWGHvyAAnce1D+qB83/Fw9+VIGG2cQ2UuNR9CMKRE6zhiTFR4bbrH3AQA+pmokkxDM20/xoqdpDH/eiVFvnP/Db9Om7SbbH9ZM0LOIp7RQWeSceHC6txWJB4OcAQrg5tBMOJnhL+Iy8Ew8+B/gQruakibwXgeCeajNFB9T00iYLTMqh6Z10UUYseVfFImQYuuPhTmgywn8cMFXV+ID4QP/0KDoelqLgBAvcgzIdxn3JDCMAlLMWhnpvFw90E5lgCsOEjl4RJsbWbFyOhkIY7qlIbtd01fVNiOWSHgrU5aaMwATea6soEgiB3kBNB0KEq54W+DBjEElu70TGO59DHVTrdCDd1ECNBwINR/NRzVNU5BJZDwWmUrWTBe+nJYNxKehPyhKSR+hBhzhI7lQTAnVHc3TV4gI9OeqiPNnW0bnl0jwgxLUwWz+UpSQH7kH9WKDJBdZigfpOIAKB5lkC+1hrmrKC8XpelpRsFluBtZ1AKxRIHZN7UE958GyB3Sm24IpFoDC47Rx/gQdNNdODZ3XRBiO+wRPXJmHPN53jzxBoFQsMPWjYuEjgw1rr1MJ4qfZocHfLsTTqojjZReNBxs8SCKOoeUbBW1/gZpQQ6HYHe7e8DMNR1O7YqKZAqHOtWCCyLdDca+qGz4NiKNCFnilZfOJXOTHxO9xofJI4zJBM2WOzG3bSMA4inoep4cMuk0ma7DDQS+ErKTIXdtGHNe2Zu3UaBS9uuBDFcEcKy9hde8CD1ZqOUibQbO5NvOYt9ODEg0tV2r5dxrh/u2gI1YQLiSgQPkhIbRLi+ZGJv0aRybLDA1BogB+laPlsHsAQtT8/TRqMylHTms+O61pC4xqWxGUfPFC8K3L5A43thEQPUdVLvIPPuttGvHqg1fYVCqR8eF2OwPGCZZSy5MiQaTt+Hz34rKAfKWyNmJbQx909LWXTQmsECWI1ScfjDU2buMu8AxNgpUxVrvjoqCCKB60Go0mByKXTUtKZ1iPTHDVFDTqanTb5HracQxPp1NImlxIrbVHbOKhvBeKUQJ8E9VZ3vKrXR/XVuHs1b8J/rElRUa5HxatuWrgqRcNjuAAPJh4H1biyjUy7gjeqiHU4EsolbooiHYrKYlvbC6SJWQII9h5h0+k0CIEn69XwKiIjgaoPMdh2kK76KjLDyYiaX0OqAyYZhs8o0HMTciA3kx01CvRIhuNR9GZVjwTKvh59HrwZYv9W4CjQ1KQHbSsapDyAX8wssJbjKwT/SKBMIJ1UPMhfiBwJjKqJatXUEwUvryY6imQkqwk5WgBVwmSbC3ThWrP55/UsdS+wsgo0OSlQ9qiltH3fAXy/3YHhiS1ml6+FW48BjG4yacYCsR120axqQt+WS0Y6F5X25VIoEE5YJNBLChwzyGQTXVT1nZq6C/yoZrsdDbP+xVPUrQcjgfpOYE5FvxOYXQ9GAjM9GK9l7BUaycQIRgHTrCmEWpfupVxglgdfJ9A4LXDwzKxEpE9q29l8HNxdWF8YJlDiGizsopqDjudkkkvYBQJbPzFpZ6hKoFZxcPEE9VggyvNgquA1j69Bo1Ag76OdWpE+06dsc2l9oUApr4vmzMmgo0HGiAvegkGmUmkExS6E9NS7fHITDTI2bm4bJG8F4kMPoqyKHvNrMKrokx7EGQKHAcbJgfTAf1BgXqPAiAYZ1bWR7vj8iRoLDAO970CV58YFr1FzZR35EPttfzuzbbsQveHNpuOrsQdlVzJUV44+Lymw0sfYyr8AYQi9u1qg57natnLVeaAPA1Q4kuuGsavoeUJnGNEGyjhVCw8z4qNoZIKsDV5yk7kX+FDfeJCwqFniuP+qhM0uPhHVarU+8WQ7qmxRXL2qPNlG29I2NEFmbdkoLm+jv/BkW92beM3Lk20k7Y8CUxsEtj4NH0bWNGCYVOWs8MBPlwbevbD/hvP6CJhh7CkpOpAhWmkTr6DSpp4HR1WPjsKd9FFgeV4+9xdQk1Gq+Jn+00256WH2fOEBpnvHwkQ+c6U2LFx57cp/0bi6jWpZGv6iqaqYhsdtj6KRgdLIxFj43FJcNWOE0U1TdnsUB5fWV+9TrRwo8apNX04mnqEuDtQr7R6UFUEwv3CtNPyMiWLLZVBDoZT0mNLuKc2mUvX4CWC4/3jx4aUOQTcaJH+Nk29E22O4HgkdoHbCXfpQBTJvvbzG7RZ3rLOrzo7++6tjOlDO8+t/valPHq6ySrFh1Vo4mZnDBUTnfQSfDWlTb9SddAfDT9cQFwuEXGPfiJzwlGv/PZxrBPVDgZD9X6n5p2kmE7jrcMf4Vhg9U+G1ZRtQNvSvPem75AK396yUPco4JexKbDDILfN8le3Y9CHx7185N2YVL66+sjRinoOu3xsz9Tkau7v6sgQEeqe0vpn+b1Rw4PXXr+dT7PPVyyyJe7eeOAFS1ktJyrAlLKZP6OP115W6IPC3HSilmn7upym0jL1cgylt79qXWhTJF/MKcz66Y2mbMhYGp7S5a1yZYULt4WkpO0jCrSJSvLoenlqU/JVAyniW9TLnPKWtuk+xV8rK7jP2VPTqayhjADlHZILLT73ksGRENk615uLwyetGOd8nsAqob0rHo/gppPRzKcNcgN3B/ZI2GkKc6JmFzUpNoWxr89QfXz04qQoOSoiBIcMZ1lRdSowqcXMzEnDdePny9cuLoaP8IUeKInzxNe0Ttiltl+Eq0JzzzrtuPPFWDZ/us5t9TM5BDiHlbB0JmXi0aSbu8s/n/iuo4/s8vtyfd0ZyBJodzGal6asMZrQapaL68dxM6rXRqszXa3DiHy+7ObJfyA1Ml7IyN+C1HpknG8ezekfNv/+z0vWYNWm1Kk/nujALh2Cr1K3adUz840h47Jr7b5XVlJDZZlz59uv1o2Fb1KuX+pU6kz5Wzql4758qY4YJ/gsE/oYHC/daXoXhWvOKxtGtL/W/K63lNPh896nyr/vjP5+H6RI8LXsf+iSgynY9Sypo8f2/4djvcPn8ef96ZbG+plZaCpOgj71aKs7ntP3lR3j4jxx9Zyh2PGzd4LazekDdnHQtJVd/+fr07ekrBAmpyNP5+Bb2rj3Tm8Vgga3ifHSrUDe2S/O/guzh4PrzaBm0HsGFZzbynGmNfH1seQN5QHeNPbtAlOrYvz9z6oP/lrf6TrlRuH8ss5dKyLSbxDtXRl5PNx0L/Hezu1yGa2rZcZc7GD90W/Egdu32RWStY5ycwUBm2yO3818lvJuherhDjo8mqmNpmGHr+/2v5tYcA7ka9i6+Q/I1fNowqJrM3bihm0itOX6zSjDzNvUBJC/SwWR1JtmXqq1Agl1uAnrEYI2p68iqHu3qkP220oOuSbTPz+E973+cXQQeYTodjPs3v618FRDiWVa1B1Qti2BKafB5upnEmeOPl7MG0iMn6zz9DEqs4PNojfi9ShrTKNUYCwK+r+N7si79xziebjqJDtkLxdbP298zDwr53e3r59l6PXvebB7r3cNGPRW4ME9uzcWY9d/Id1UOPQy19uDhYTDMvvnkz9dehqZTJSSYPbyVr4wdL1hhrjj8cn84ubh/dexDs8Y3DwabN/RlqsMNY4uidP+bocdTvVLB7qFIs6PA5by4XfKSSXcT4Gm9YER4Ms4q5k3VbsIwzGa3KI4KGYwWmG1W+RL/OSMe6rKvWJgEd6u35b6IuccYLhj3khdipvNMtekRiKHBjVOXXIaPfYI/r+uDPDf+82Lk7U9Qa7Zb5fsj+5tVLG8yaqzemtLuqA+XIuuPcr6YaPjvv4/7qcnvLVA6FHJz9rzf+TlczRvdG3/pyDGtyU9rykDj3fd5ZhD78efLvqPy7FW1fVfxMOX3N6YuveFq/Dh4cwJB4nCy7E8ZJGz99WY5mgwOZQ6/fTG4Mj3Kyy0PMnMtmFqN8cGh80Zj9BYStSzGy3XfA5E4+Pyfv8jscTXme1djBoP/us2eFW43x5QxYvVnjbc4ahYymKx+Pm76FqOEBdPP02kASgi/2RbycRZttmbMWj8vf9bn17uD+rq0Bt3uuH639qIbpQMWEt00HSxmy/p48pA74r4fWsPBw2S+qo8ajcbjY6Pxk9/1Dso+vVO3CQQCgUAgEAgEAoFAIBAIBAKBQCAQCAQCgUAgEAgEAoFAIBAIBAKBIJ//AQnPSkBrVysyAAAAAElFTkSuQmCC;" vertex="1" parent="1">
          <mxGeometry x="2624" y="-904.5" width="94" height="94" as="geometry" />
        </mxCell>
        <mxCell id="e9eDXrmeyJTS1PGcT-Jd-89" value="offline总资源&lt;br&gt;&lt;b&gt;13 core&lt;/b&gt;" style="rounded=0;whiteSpace=wrap;html=1;fillColor=#dae8fc;strokeColor=#6c8ebf;" vertex="1" parent="1">
          <mxGeometry x="2394" y="-705" width="90" height="60" as="geometry" />
        </mxCell>
        <mxCell id="e9eDXrmeyJTS1PGcT-Jd-91" value="offline_common2 12core" style="rounded=0;whiteSpace=wrap;html=1;fillColor=#fff2cc;strokeColor=#d6b656;" vertex="1" parent="1">
          <mxGeometry x="2784" y="-706" width="90" height="60" as="geometry" />
        </mxCell>
        <mxCell id="e9eDXrmeyJTS1PGcT-Jd-92" style="edgeStyle=orthogonalEdgeStyle;rounded=0;orthogonalLoop=1;jettySize=auto;html=1;elbow=vertical;curved=1;" edge="1" parent="1" source="e9eDXrmeyJTS1PGcT-Jd-88" target="e9eDXrmeyJTS1PGcT-Jd-91">
          <mxGeometry relative="1" as="geometry">
            <mxPoint x="2824" y="-829" as="sourcePoint" />
            <mxPoint x="2990" y="-706" as="targetPoint" />
          </mxGeometry>
        </mxCell>
        <mxCell id="e9eDXrmeyJTS1PGcT-Jd-93" value="5.create&amp;nbsp;" style="edgeLabel;html=1;align=center;verticalAlign=middle;resizable=0;points=[];fontSize=14;" vertex="1" connectable="0" parent="e9eDXrmeyJTS1PGcT-Jd-92">
          <mxGeometry x="0.4533" y="-26" relative="1" as="geometry">
            <mxPoint x="11" y="-17" as="offset" />
          </mxGeometry>
        </mxCell>
        <mxCell id="e9eDXrmeyJTS1PGcT-Jd-97" value="offline总资源&lt;br&gt;&lt;b&gt;1 core&lt;/b&gt;" style="rounded=0;whiteSpace=wrap;html=1;fillColor=#dae8fc;strokeColor=#6c8ebf;" vertex="1" parent="1">
          <mxGeometry x="2234" y="-438.5" width="90" height="50" as="geometry" />
        </mxCell>
        <mxCell id="e9eDXrmeyJTS1PGcT-Jd-98" style="edgeStyle=entityRelationEdgeStyle;rounded=0;orthogonalLoop=1;jettySize=auto;html=1;exitX=0;exitY=0.5;exitDx=0;exitDy=0;entryX=1;entryY=0;entryDx=0;entryDy=37.5;entryPerimeter=0;" edge="1" parent="1" source="e9eDXrmeyJTS1PGcT-Jd-99" target="e9eDXrmeyJTS1PGcT-Jd-105">
          <mxGeometry relative="1" as="geometry" />
        </mxCell>
        <mxCell id="e9eDXrmeyJTS1PGcT-Jd-99" value="wcloudAgent" style="shape=process;whiteSpace=wrap;html=1;backgroundOutline=1;fillColor=#b0e3e6;strokeColor=#0e8088;" vertex="1" parent="1">
          <mxGeometry x="2219" y="-468.5" width="120" height="30" as="geometry" />
        </mxCell>
        <mxCell id="e9eDXrmeyJTS1PGcT-Jd-100" style="edgeStyle=orthogonalEdgeStyle;rounded=0;orthogonalLoop=1;jettySize=auto;html=1;entryX=1;entryY=0;entryDx=0;entryDy=37.5;entryPerimeter=0;" edge="1" parent="1" source="e9eDXrmeyJTS1PGcT-Jd-102" target="e9eDXrmeyJTS1PGcT-Jd-105">
          <mxGeometry relative="1" as="geometry">
            <mxPoint x="1969" y="-225.5" as="targetPoint" />
          </mxGeometry>
        </mxCell>
        <mxCell id="e9eDXrmeyJTS1PGcT-Jd-101" value="&lt;font style=&quot;font-size: 13px;&quot;&gt;1.给Node打Annotation&lt;br style=&quot;border-color: var(--border-color); background-color: rgb(251, 251, 251);&quot;&gt;&lt;span style=&quot;background-color: rgb(251, 251, 251);&quot;&gt;msg：offline总资源&lt;/span&gt;&lt;/font&gt;" style="edgeLabel;html=1;align=center;verticalAlign=middle;resizable=0;points=[];" vertex="1" connectable="0" parent="e9eDXrmeyJTS1PGcT-Jd-100">
          <mxGeometry x="-0.0836" y="-3" relative="1" as="geometry">
            <mxPoint x="19" y="3" as="offset" />
          </mxGeometry>
        </mxCell>
        <mxCell id="e9eDXrmeyJTS1PGcT-Jd-102" value="wcloudAgent" style="shape=process;whiteSpace=wrap;html=1;backgroundOutline=1;fillColor=#b0e3e6;strokeColor=#0e8088;" vertex="1" parent="1">
          <mxGeometry x="2219" y="-253.5" width="120" height="30" as="geometry" />
        </mxCell>
        <mxCell id="e9eDXrmeyJTS1PGcT-Jd-132" style="edgeStyle=entityRelationEdgeStyle;rounded=0;orthogonalLoop=1;jettySize=auto;html=1;entryX=0;entryY=0.5;entryDx=0;entryDy=0;" edge="1" parent="1" source="e9eDXrmeyJTS1PGcT-Jd-104" target="e9eDXrmeyJTS1PGcT-Jd-126">
          <mxGeometry relative="1" as="geometry" />
        </mxCell>
        <mxCell id="e9eDXrmeyJTS1PGcT-Jd-133" value="5.1调大offline总资源" style="edgeLabel;html=1;align=center;verticalAlign=middle;resizable=0;points=[];fontSize=14;" vertex="1" connectable="0" parent="e9eDXrmeyJTS1PGcT-Jd-132">
          <mxGeometry x="0.0794" y="-1" relative="1" as="geometry">
            <mxPoint as="offset" />
          </mxGeometry>
        </mxCell>
        <mxCell id="e9eDXrmeyJTS1PGcT-Jd-137" style="edgeStyle=entityRelationEdgeStyle;rounded=0;orthogonalLoop=1;jettySize=auto;html=1;entryX=0;entryY=0.5;entryDx=0;entryDy=0;" edge="1" parent="1" source="e9eDXrmeyJTS1PGcT-Jd-104" target="e9eDXrmeyJTS1PGcT-Jd-131">
          <mxGeometry relative="1" as="geometry" />
        </mxCell>
        <mxCell id="e9eDXrmeyJTS1PGcT-Jd-138" value="5.3 根据资源预测值，&lt;br style=&quot;font-size: 14px;&quot;&gt;调整offline各容器资源" style="edgeLabel;html=1;align=center;verticalAlign=middle;resizable=0;points=[];fontSize=14;" vertex="1" connectable="0" parent="e9eDXrmeyJTS1PGcT-Jd-137">
          <mxGeometry x="0.0986" y="3" relative="1" as="geometry">
            <mxPoint x="-6" y="-4" as="offset" />
          </mxGeometry>
        </mxCell>
        <mxCell id="e9eDXrmeyJTS1PGcT-Jd-104" value="wcloudAgent" style="shape=process;whiteSpace=wrap;html=1;backgroundOutline=1;fillColor=#b0e3e6;strokeColor=#0e8088;" vertex="1" parent="1">
          <mxGeometry x="2219" y="-39.5" width="120" height="30" as="geometry" />
        </mxCell>
        <mxCell id="e9eDXrmeyJTS1PGcT-Jd-105" value="API-Server" style="shape=cylinder3;whiteSpace=wrap;html=1;boundedLbl=1;backgroundOutline=1;size=15;fillColor=#f5f5f5;fontColor=#333333;strokeColor=#666666;" vertex="1" parent="1">
          <mxGeometry x="1915" y="-276.5" width="90" height="60" as="geometry" />
        </mxCell>
        <mxCell id="e9eDXrmeyJTS1PGcT-Jd-106" style="edgeStyle=orthogonalEdgeStyle;rounded=0;orthogonalLoop=1;jettySize=auto;html=1;exitX=0;exitY=0;exitDx=70;exitDy=80;exitPerimeter=0;curved=1;entryX=0.5;entryY=1;entryDx=0;entryDy=0;" edge="1" parent="1" source="e9eDXrmeyJTS1PGcT-Jd-108" target="e9eDXrmeyJTS1PGcT-Jd-119">
          <mxGeometry relative="1" as="geometry">
            <mxPoint x="2229" y="80.5" as="targetPoint" />
            <Array as="points">
              <mxPoint x="1970" y="176.5" />
              <mxPoint x="2655" y="176.5" />
            </Array>
          </mxGeometry>
        </mxCell>
        <mxCell id="e9eDXrmeyJTS1PGcT-Jd-107" value="4.选出物理机进行部署" style="edgeLabel;html=1;align=center;verticalAlign=middle;resizable=0;points=[];fontSize=16;" vertex="1" connectable="0" parent="e9eDXrmeyJTS1PGcT-Jd-106">
          <mxGeometry x="-0.0455" y="1" relative="1" as="geometry">
            <mxPoint y="1" as="offset" />
          </mxGeometry>
        </mxCell>
        <mxCell id="e9eDXrmeyJTS1PGcT-Jd-108" value="调度扩展" style="shape=cube;whiteSpace=wrap;html=1;boundedLbl=1;backgroundOutline=1;darkOpacity=0.05;darkOpacity2=0.1;fillColor=#d5e8d4;strokeColor=#82b366;" vertex="1" parent="1">
          <mxGeometry x="1900" y="45.5" width="120" height="80" as="geometry" />
        </mxCell>
        <mxCell id="e9eDXrmeyJTS1PGcT-Jd-109" value="offline&lt;br&gt;Common&lt;br&gt;pod&lt;br&gt;&lt;br&gt;&lt;b&gt;12core&lt;/b&gt;" style="ellipse;whiteSpace=wrap;html=1;aspect=fixed;fillColor=#fff2cc;strokeColor=#d6b656;" vertex="1" parent="1">
          <mxGeometry x="1820" y="-303.5" width="80" height="80" as="geometry" />
        </mxCell>
        <mxCell id="e9eDXrmeyJTS1PGcT-Jd-110" value="offline_common1 1core" style="rounded=0;whiteSpace=wrap;html=1;fillColor=#f8cecc;strokeColor=#b85450;" vertex="1" parent="1">
          <mxGeometry x="2610" y="-278.5" width="90" height="60" as="geometry" />
        </mxCell>
        <mxCell id="e9eDXrmeyJTS1PGcT-Jd-112" value="" style="shape=flexArrow;endArrow=classic;html=1;rounded=0;" edge="1" parent="1">
          <mxGeometry width="50" height="50" relative="1" as="geometry">
            <mxPoint x="1775" y="-261" as="sourcePoint" />
            <mxPoint x="1815" y="-261" as="targetPoint" />
          </mxGeometry>
        </mxCell>
        <mxCell id="e9eDXrmeyJTS1PGcT-Jd-113" value="2.下发PodYaml" style="text;html=1;align=center;verticalAlign=middle;resizable=0;points=[];autosize=1;strokeColor=none;fillColor=none;fontSize=14;" vertex="1" parent="1">
          <mxGeometry x="1654" y="-276.5" width="120" height="30" as="geometry" />
        </mxCell>
        <mxCell id="e9eDXrmeyJTS1PGcT-Jd-114" value="" style="endArrow=classic;startArrow=classic;html=1;rounded=0;exitX=0.5;exitY=1;exitDx=0;exitDy=0;exitPerimeter=0;" edge="1" parent="1" source="e9eDXrmeyJTS1PGcT-Jd-105" target="e9eDXrmeyJTS1PGcT-Jd-108">
          <mxGeometry width="50" height="50" relative="1" as="geometry">
            <mxPoint x="2280" y="-120.5" as="sourcePoint" />
            <mxPoint x="2280" y="-170.5" as="targetPoint" />
          </mxGeometry>
        </mxCell>
        <mxCell id="e9eDXrmeyJTS1PGcT-Jd-115" value="watch" style="edgeLabel;html=1;align=center;verticalAlign=middle;resizable=0;points=[];fontSize=14;" vertex="1" connectable="0" parent="e9eDXrmeyJTS1PGcT-Jd-114">
          <mxGeometry x="0.1593" y="-3" relative="1" as="geometry">
            <mxPoint x="-16" y="-3" as="offset" />
          </mxGeometry>
        </mxCell>
        <mxCell id="e9eDXrmeyJTS1PGcT-Jd-116" value="3. 调度offlineComon业务Pod&lt;br style=&quot;font-size: 14px;&quot;&gt;&lt;br style=&quot;font-size: 14px;&quot;&gt;3.1实时感知Node信息，&lt;br style=&quot;font-size: 14px;&quot;&gt;即可知Node- Annotation中offline总资源&lt;br style=&quot;font-size: 14px;&quot;&gt;&lt;br style=&quot;font-size: 14px;&quot;&gt;3.2 根据当前剩余资源以及offline资源&lt;br style=&quot;font-size: 14px;&quot;&gt;是否够用" style="text;html=1;align=left;verticalAlign=middle;resizable=0;points=[];autosize=1;strokeColor=none;fillColor=none;fontSize=14;" vertex="1" parent="1">
          <mxGeometry x="1654" y="-128.5" width="270" height="130" as="geometry" />
        </mxCell>
        <mxCell id="e9eDXrmeyJTS1PGcT-Jd-117" value="offline总资源&lt;br&gt;&lt;b&gt;1 core&lt;/b&gt;" style="rounded=0;whiteSpace=wrap;html=1;fillColor=#dae8fc;strokeColor=#6c8ebf;" vertex="1" parent="1">
          <mxGeometry x="2234" y="-223.5" width="90" height="50" as="geometry" />
        </mxCell>
        <mxCell id="e9eDXrmeyJTS1PGcT-Jd-118" value="offline总资源&lt;br&gt;&lt;b&gt;1 core&lt;/b&gt;" style="rounded=0;whiteSpace=wrap;html=1;fillColor=#dae8fc;strokeColor=#6c8ebf;" vertex="1" parent="1">
          <mxGeometry x="2234" y="-9.5" width="90" height="50" as="geometry" />
        </mxCell>
        <mxCell id="e9eDXrmeyJTS1PGcT-Jd-119" value="offlineCgroup资源情况&lt;br&gt;&lt;br&gt;&lt;br&gt;&lt;br&gt;&lt;br&gt;&lt;br&gt;&lt;br&gt;&lt;br&gt;&lt;br&gt;&lt;br&gt;&lt;br&gt;&lt;br&gt;&lt;br&gt;&lt;br&gt;&lt;br&gt;&lt;br&gt;&lt;br&gt;&lt;br&gt;&lt;br&gt;&lt;br&gt;&lt;br&gt;&lt;br&gt;&lt;br&gt;&lt;br&gt;&lt;br&gt;&lt;br&gt;&lt;br&gt;&lt;br&gt;&lt;br&gt;&lt;br&gt;&lt;br&gt;&lt;br&gt;&lt;br&gt;&lt;br&gt;&lt;br&gt;" style="rounded=0;whiteSpace=wrap;html=1;fillColor=none;" vertex="1" parent="1">
          <mxGeometry x="2485" y="-292.5" width="340" height="439" as="geometry" />
        </mxCell>
        <mxCell id="e9eDXrmeyJTS1PGcT-Jd-121" value="offline总资源&lt;br&gt;&lt;b&gt;1 core&lt;/b&gt;" style="rounded=0;whiteSpace=wrap;html=1;fillColor=#dae8fc;strokeColor=#6c8ebf;" vertex="1" parent="1">
          <mxGeometry x="2491" y="-278.5" width="90" height="60" as="geometry" />
        </mxCell>
        <mxCell id="e9eDXrmeyJTS1PGcT-Jd-122" value="offline_common2 12core" style="rounded=0;whiteSpace=wrap;html=1;fillColor=#fff2cc;strokeColor=#d6b656;" vertex="1" parent="1">
          <mxGeometry x="2730" y="-44.5" width="90" height="60" as="geometry" />
        </mxCell>
        <mxCell id="e9eDXrmeyJTS1PGcT-Jd-125" value="offline_common1 1core" style="rounded=0;whiteSpace=wrap;html=1;fillColor=#f8cecc;strokeColor=#b85450;" vertex="1" parent="1">
          <mxGeometry x="2609.5" y="-163.5" width="90" height="60" as="geometry" />
        </mxCell>
        <mxCell id="e9eDXrmeyJTS1PGcT-Jd-126" value="offline总资源&lt;br&gt;&lt;b&gt;12 core&lt;/b&gt;" style="rounded=0;whiteSpace=wrap;html=1;fillColor=#dae8fc;strokeColor=#6c8ebf;" vertex="1" parent="1">
          <mxGeometry x="2490.5" y="-163.5" width="90" height="60" as="geometry" />
        </mxCell>
        <mxCell id="e9eDXrmeyJTS1PGcT-Jd-127" value="offline_common1 1core" style="rounded=0;whiteSpace=wrap;html=1;fillColor=#f8cecc;strokeColor=#b85450;" vertex="1" parent="1">
          <mxGeometry x="2610" y="-44.5" width="90" height="60" as="geometry" />
        </mxCell>
        <mxCell id="e9eDXrmeyJTS1PGcT-Jd-128" value="offline总资源&lt;br&gt;&lt;b&gt;12 core&lt;/b&gt;" style="rounded=0;whiteSpace=wrap;html=1;fillColor=#dae8fc;strokeColor=#6c8ebf;" vertex="1" parent="1">
          <mxGeometry x="2491" y="-44.5" width="90" height="60" as="geometry" />
        </mxCell>
        <mxCell id="e9eDXrmeyJTS1PGcT-Jd-129" value="offline_common2 1core" style="rounded=0;whiteSpace=wrap;html=1;fillColor=#fff2cc;strokeColor=#d6b656;" vertex="1" parent="1">
          <mxGeometry x="2729.5" y="70.5" width="90" height="60" as="geometry" />
        </mxCell>
        <mxCell id="e9eDXrmeyJTS1PGcT-Jd-130" value="offline_common1 1core" style="rounded=0;whiteSpace=wrap;html=1;fillColor=#f8cecc;strokeColor=#b85450;" vertex="1" parent="1">
          <mxGeometry x="2609.5" y="70.5" width="90" height="60" as="geometry" />
        </mxCell>
        <mxCell id="e9eDXrmeyJTS1PGcT-Jd-131" value="offline总资源&lt;br&gt;&lt;b&gt;1 core&lt;/b&gt;" style="rounded=0;whiteSpace=wrap;html=1;fillColor=#dae8fc;strokeColor=#6c8ebf;" vertex="1" parent="1">
          <mxGeometry x="2490.5" y="70.5" width="90" height="60" as="geometry" />
        </mxCell>
        <mxCell id="e9eDXrmeyJTS1PGcT-Jd-134" value="" style="endArrow=classic;startArrow=classic;html=1;rounded=0;" edge="1" parent="1">
          <mxGeometry width="50" height="50" relative="1" as="geometry">
            <mxPoint x="2199" y="-18.5" as="sourcePoint" />
            <mxPoint x="2004" y="-203.5" as="targetPoint" />
          </mxGeometry>
        </mxCell>
        <mxCell id="e9eDXrmeyJTS1PGcT-Jd-136" value="5.感知到offlineCommonPod&lt;br style=&quot;font-size: 13px;&quot;&gt;部署到当前物理机" style="edgeLabel;html=1;align=center;verticalAlign=middle;resizable=0;points=[];fontSize=13;" vertex="1" connectable="0" parent="e9eDXrmeyJTS1PGcT-Jd-134">
          <mxGeometry x="0.1997" y="-1" relative="1" as="geometry">
            <mxPoint x="-14" y="17" as="offset" />
          </mxGeometry>
        </mxCell>
        <mxCell id="e9eDXrmeyJTS1PGcT-Jd-135" style="edgeStyle=entityRelationEdgeStyle;rounded=0;orthogonalLoop=1;jettySize=auto;html=1;entryX=1;entryY=0;entryDx=0;entryDy=37.5;entryPerimeter=0;exitX=0.5;exitY=0;exitDx=0;exitDy=0;" edge="1" parent="1" source="e9eDXrmeyJTS1PGcT-Jd-104" target="e9eDXrmeyJTS1PGcT-Jd-105">
          <mxGeometry relative="1" as="geometry" />
        </mxCell>
        <mxCell id="e9eDXrmeyJTS1PGcT-Jd-139" value="" style="shape=image;verticalLabelPosition=bottom;labelBackgroundColor=default;verticalAlign=top;aspect=fixed;imageAspect=0;image=data:image/png,iVBORw0KGgoAAAANSUhEUgAAAOAAAADgCAMAAAAt85rTAAAAz1BMVEX///8klu0oUZ4kluwljOImabkkkecoTpwklu4oVKEoUJ0kl+0nYrIkmfEkkOaaq86BmsgnXascTp8mcMEkiN7y9flohbslg9cmdccnXq3Q2OknZbQmeMooV6Ulf9IcTZ87Y6rc4+8AkOzt8fiQpMy7x9/X3+3DzuMARZxOcLGxwdwgVKZ8lMTw8vhxjMAAPZimt9eezfZGa69hf7lXd7RDoe9lsfFyufPe7fyVxvS42PcALpQ/p+9ztvKXzfWPrNHM5fq63PgAIZGfvuKLncXpQowZAAANF0lEQVR4nO2cC3vaOhKGkXyVjAELE3PxBQKEW0oJJO05PWe3Pbv9/79pR7YBG2xDWjBJVm/6EJgYqs8ja2YkmUpFIBAIBAKBQCAQCAQCgUAgEAgEAoFAIBAIBAKBQCAQCAQCgUAgEAgEAoFAIBAI3jmtQ27doMsynC/vDqh3b92oSzIKmMaYpmkMa/wRXgX9wa1bdTkGz5TQEI1uIcHq1s26HN0+tWomQrqOYsw2Dhq3btbl6PaxYnJd0k6hTdmHEkhBYM2RkO7ICMk20j+eQMNwLRDnuchs9mof0YNmm9hI0prI7Fmy8dEEajuBbcPsdeQP6EHDiAWGHvyAAnce1D+qB83/Fw9+VIGG2cQ2UuNR9CMKRE6zhiTFR4bbrH3AQA+pmokkxDM20/xoqdpDH/eiVFvnP/Db9Om7SbbH9ZM0LOIp7RQWeSceHC6txWJB4OcAQrg5tBMOJnhL+Iy8Ew8+B/gQruakibwXgeCeajNFB9T00iYLTMqh6Z10UUYseVfFImQYuuPhTmgywn8cMFXV+ID4QP/0KDoelqLgBAvcgzIdxn3JDCMAlLMWhnpvFw90E5lgCsOEjl4RJsbWbFyOhkIY7qlIbtd01fVNiOWSHgrU5aaMwATea6soEgiB3kBNB0KEq54W+DBjEElu70TGO59DHVTrdCDd1ECNBwINR/NRzVNU5BJZDwWmUrWTBe+nJYNxKehPyhKSR+hBhzhI7lQTAnVHc3TV4gI9OeqiPNnW0bnl0jwgxLUwWz+UpSQH7kH9WKDJBdZigfpOIAKB5lkC+1hrmrKC8XpelpRsFluBtZ1AKxRIHZN7UE958GyB3Sm24IpFoDC47Rx/gQdNNdODZ3XRBiO+wRPXJmHPN53jzxBoFQsMPWjYuEjgw1rr1MJ4qfZocHfLsTTqojjZReNBxs8SCKOoeUbBW1/gZpQQ6HYHe7e8DMNR1O7YqKZAqHOtWCCyLdDca+qGz4NiKNCFnilZfOJXOTHxO9xofJI4zJBM2WOzG3bSMA4inoep4cMuk0ma7DDQS+ErKTIXdtGHNe2Zu3UaBS9uuBDFcEcKy9hde8CD1ZqOUibQbO5NvOYt9ODEg0tV2r5dxrh/u2gI1YQLiSgQPkhIbRLi+ZGJv0aRybLDA1BogB+laPlsHsAQtT8/TRqMylHTms+O61pC4xqWxGUfPFC8K3L5A43thEQPUdVLvIPPuttGvHqg1fYVCqR8eF2OwPGCZZSy5MiQaTt+Hz34rKAfKWyNmJbQx909LWXTQmsECWI1ScfjDU2buMu8AxNgpUxVrvjoqCCKB60Go0mByKXTUtKZ1iPTHDVFDTqanTb5HracQxPp1NImlxIrbVHbOKhvBeKUQJ8E9VZ3vKrXR/XVuHs1b8J/rElRUa5HxatuWrgqRcNjuAAPJh4H1biyjUy7gjeqiHU4EsolbooiHYrKYlvbC6SJWQII9h5h0+k0CIEn69XwKiIjgaoPMdh2kK76KjLDyYiaX0OqAyYZhs8o0HMTciA3kx01CvRIhuNR9GZVjwTKvh59HrwZYv9W4CjQ1KQHbSsapDyAX8wssJbjKwT/SKBMIJ1UPMhfiBwJjKqJatXUEwUvryY6imQkqwk5WgBVwmSbC3ThWrP55/UsdS+wsgo0OSlQ9qiltH3fAXy/3YHhiS1ml6+FW48BjG4yacYCsR120axqQt+WS0Y6F5X25VIoEE5YJNBLChwzyGQTXVT1nZq6C/yoZrsdDbP+xVPUrQcjgfpOYE5FvxOYXQ9GAjM9GK9l7BUaycQIRgHTrCmEWpfupVxglgdfJ9A4LXDwzKxEpE9q29l8HNxdWF8YJlDiGizsopqDjudkkkvYBQJbPzFpZ6hKoFZxcPEE9VggyvNgquA1j69Bo1Ag76OdWpE+06dsc2l9oUApr4vmzMmgo0HGiAvegkGmUmkExS6E9NS7fHITDTI2bm4bJG8F4kMPoqyKHvNrMKrokx7EGQKHAcbJgfTAf1BgXqPAiAYZ1bWR7vj8iRoLDAO970CV58YFr1FzZR35EPttfzuzbbsQveHNpuOrsQdlVzJUV44+Lymw0sfYyr8AYQi9u1qg57natnLVeaAPA1Q4kuuGsavoeUJnGNEGyjhVCw8z4qNoZIKsDV5yk7kX+FDfeJCwqFniuP+qhM0uPhHVarU+8WQ7qmxRXL2qPNlG29I2NEFmbdkoLm+jv/BkW92beM3Lk20k7Y8CUxsEtj4NH0bWNGCYVOWs8MBPlwbevbD/hvP6CJhh7CkpOpAhWmkTr6DSpp4HR1WPjsKd9FFgeV4+9xdQk1Gq+Jn+00256WH2fOEBpnvHwkQ+c6U2LFx57cp/0bi6jWpZGv6iqaqYhsdtj6KRgdLIxFj43FJcNWOE0U1TdnsUB5fWV+9TrRwo8apNX04mnqEuDtQr7R6UFUEwv3CtNPyMiWLLZVBDoZT0mNLuKc2mUvX4CWC4/3jx4aUOQTcaJH+Nk29E22O4HgkdoHbCXfpQBTJvvbzG7RZ3rLOrzo7++6tjOlDO8+t/valPHq6ySrFh1Vo4mZnDBUTnfQSfDWlTb9SddAfDT9cQFwuEXGPfiJzwlGv/PZxrBPVDgZD9X6n5p2kmE7jrcMf4Vhg9U+G1ZRtQNvSvPem75AK396yUPco4JexKbDDILfN8le3Y9CHx7185N2YVL66+sjRinoOu3xsz9Tkau7v6sgQEeqe0vpn+b1Rw4PXXr+dT7PPVyyyJe7eeOAFS1ktJyrAlLKZP6OP115W6IPC3HSilmn7upym0jL1cgylt79qXWhTJF/MKcz66Y2mbMhYGp7S5a1yZYULt4WkpO0jCrSJSvLoenlqU/JVAyniW9TLnPKWtuk+xV8rK7jP2VPTqayhjADlHZILLT73ksGRENk615uLwyetGOd8nsAqob0rHo/gppPRzKcNcgN3B/ZI2GkKc6JmFzUpNoWxr89QfXz04qQoOSoiBIcMZ1lRdSowqcXMzEnDdePny9cuLoaP8IUeKInzxNe0Ttiltl+Eq0JzzzrtuPPFWDZ/us5t9TM5BDiHlbB0JmXi0aSbu8s/n/iuo4/s8vtyfd0ZyBJodzGal6asMZrQapaL68dxM6rXRqszXa3DiHy+7ObJfyA1Ml7IyN+C1HpknG8ezekfNv/+z0vWYNWm1Kk/nujALh2Cr1K3adUz840h47Jr7b5XVlJDZZlz59uv1o2Fb1KuX+pU6kz5Wzql4758qY4YJ/gsE/oYHC/daXoXhWvOKxtGtL/W/K63lNPh896nyr/vjP5+H6RI8LXsf+iSgynY9Sypo8f2/4djvcPn8ef96ZbG+plZaCpOgj71aKs7ntP3lR3j4jxx9Zyh2PGzd4LazekDdnHQtJVd/+fr07ekrBAmpyNP5+Bb2rj3Tm8Vgga3ifHSrUDe2S/O/guzh4PrzaBm0HsGFZzbynGmNfH1seQN5QHeNPbtAlOrYvz9z6oP/lrf6TrlRuH8ss5dKyLSbxDtXRl5PNx0L/Hezu1yGa2rZcZc7GD90W/Egdu32RWStY5ycwUBm2yO3818lvJuherhDjo8mqmNpmGHr+/2v5tYcA7ka9i6+Q/I1fNowqJrM3bihm0itOX6zSjDzNvUBJC/SwWR1JtmXqq1Agl1uAnrEYI2p68iqHu3qkP220oOuSbTPz+E973+cXQQeYTodjPs3v618FRDiWVa1B1Qti2BKafB5upnEmeOPl7MG0iMn6zz9DEqs4PNojfi9ShrTKNUYCwK+r+N7si79xziebjqJDtkLxdbP298zDwr53e3r59l6PXvebB7r3cNGPRW4ME9uzcWY9d/Id1UOPQy19uDhYTDMvvnkz9dehqZTJSSYPbyVr4wdL1hhrjj8cn84ubh/dexDs8Y3DwabN/RlqsMNY4uidP+bocdTvVLB7qFIs6PA5by4XfKSSXcT4Gm9YER4Ms4q5k3VbsIwzGa3KI4KGYwWmG1W+RL/OSMe6rKvWJgEd6u35b6IuccYLhj3khdipvNMtekRiKHBjVOXXIaPfYI/r+uDPDf+82Lk7U9Qa7Zb5fsj+5tVLG8yaqzemtLuqA+XIuuPcr6YaPjvv4/7qcnvLVA6FHJz9rzf+TlczRvdG3/pyDGtyU9rykDj3fd5ZhD78efLvqPy7FW1fVfxMOX3N6YuveFq/Dh4cwJB4nCy7E8ZJGz99WY5mgwOZQ6/fTG4Mj3Kyy0PMnMtmFqN8cGh80Zj9BYStSzGy3XfA5E4+Pyfv8jscTXme1djBoP/us2eFW43x5QxYvVnjbc4ahYymKx+Pm76FqOEBdPP02kASgi/2RbycRZttmbMWj8vf9bn17uD+rq0Bt3uuH639qIbpQMWEt00HSxmy/p48pA74r4fWsPBw2S+qo8ajcbjY6Pxk9/1Dso+vVO3CQQCgUAgEAgEAoFAIBAIBAKBQCAQCAQCgUAgEAgEAoFAIBAIBAKBIJ//AQnPSkBrVysyAAAAAElFTkSuQmCC;imageBackground=none;" vertex="1" parent="1">
          <mxGeometry x="2899" y="-193.5" width="94" height="94" as="geometry" />
        </mxCell>
        <mxCell id="e9eDXrmeyJTS1PGcT-Jd-140" style="edgeStyle=orthogonalEdgeStyle;rounded=0;orthogonalLoop=1;jettySize=auto;html=1;elbow=vertical;curved=1;entryX=0.5;entryY=0;entryDx=0;entryDy=0;" edge="1" parent="1" target="e9eDXrmeyJTS1PGcT-Jd-122">
          <mxGeometry relative="1" as="geometry">
            <mxPoint x="2906" y="-136.5" as="sourcePoint" />
            <mxPoint x="3111" y="15.5" as="targetPoint" />
          </mxGeometry>
        </mxCell>
        <mxCell id="e9eDXrmeyJTS1PGcT-Jd-141" value="5.2create&amp;nbsp;" style="edgeLabel;html=1;align=center;verticalAlign=middle;resizable=0;points=[];fontSize=14;" vertex="1" connectable="0" parent="e9eDXrmeyJTS1PGcT-Jd-140">
          <mxGeometry x="0.4533" y="-26" relative="1" as="geometry">
            <mxPoint x="11" y="-3" as="offset" />
          </mxGeometry>
        </mxCell>
        <mxCell id="e9eDXrmeyJTS1PGcT-Jd-142" value="" style="shape=flexArrow;endArrow=classic;html=1;rounded=0;" edge="1" parent="1">
          <mxGeometry width="50" height="50" relative="1" as="geometry">
            <mxPoint x="2594.5" y="-213.5" as="sourcePoint" />
            <mxPoint x="2594" y="-173.5" as="targetPoint" />
          </mxGeometry>
        </mxCell>
        <mxCell id="e9eDXrmeyJTS1PGcT-Jd-144" value="" style="shape=flexArrow;endArrow=classic;html=1;rounded=0;" edge="1" parent="1">
          <mxGeometry width="50" height="50" relative="1" as="geometry">
            <mxPoint x="2594.5" y="-94.5" as="sourcePoint" />
            <mxPoint x="2594" y="-54.5" as="targetPoint" />
          </mxGeometry>
        </mxCell>
        <mxCell id="e9eDXrmeyJTS1PGcT-Jd-145" value="" style="shape=flexArrow;endArrow=classic;html=1;rounded=0;" edge="1" parent="1">
          <mxGeometry width="50" height="50" relative="1" as="geometry">
            <mxPoint x="2594.5" y="21.5" as="sourcePoint" />
            <mxPoint x="2594" y="61.5" as="targetPoint" />
          </mxGeometry>
        </mxCell>
        <mxCell id="e9eDXrmeyJTS1PGcT-Jd-169" value="offline总资源&lt;br&gt;&lt;b&gt;10 core&lt;/b&gt;" style="rounded=0;whiteSpace=wrap;html=1;fillColor=#dae8fc;strokeColor=#6c8ebf;" vertex="1" parent="1">
          <mxGeometry x="1424" y="315" width="80" height="80" as="geometry" />
        </mxCell>
        <mxCell id="e9eDXrmeyJTS1PGcT-Jd-170" value="common-1&lt;br&gt;10core" style="rounded=0;whiteSpace=wrap;html=1;fillColor=#dae8fc;strokeColor=#6c8ebf;" vertex="1" parent="1">
          <mxGeometry x="1554" y="255" width="80" height="40" as="geometry" />
        </mxCell>
        <mxCell id="e9eDXrmeyJTS1PGcT-Jd-171" value="common-2&lt;br&gt;10core" style="rounded=0;whiteSpace=wrap;html=1;fillColor=#dae8fc;strokeColor=#6c8ebf;" vertex="1" parent="1">
          <mxGeometry x="1554" y="335" width="80" height="40" as="geometry" />
        </mxCell>
        <mxCell id="e9eDXrmeyJTS1PGcT-Jd-172" value="yarn&lt;br&gt;5core" style="rounded=0;whiteSpace=wrap;html=1;fillColor=#dae8fc;strokeColor=#6c8ebf;" vertex="1" parent="1">
          <mxGeometry x="1554" y="415" width="80" height="40" as="geometry" />
        </mxCell>
        <mxCell id="e9eDXrmeyJTS1PGcT-Jd-173" value="container&lt;br&gt;5core" style="rounded=0;whiteSpace=wrap;html=1;fillColor=#dae8fc;strokeColor=#6c8ebf;" vertex="1" parent="1">
          <mxGeometry x="1663" y="415" width="80" height="40" as="geometry" />
        </mxCell>
        <mxCell id="e9eDXrmeyJTS1PGcT-Jd-174" value="hadoopCpu&lt;br&gt;5core" style="rounded=0;whiteSpace=wrap;html=1;fillColor=#dae8fc;strokeColor=#6c8ebf;" vertex="1" parent="1">
          <mxGeometry x="1774" y="415" width="80" height="40" as="geometry" />
        </mxCell>
        <mxCell id="e9eDXrmeyJTS1PGcT-Jd-175" value="" style="shape=curlyBracket;whiteSpace=wrap;html=1;rounded=1;labelPosition=left;verticalLabelPosition=middle;align=right;verticalAlign=middle;" vertex="1" parent="1">
          <mxGeometry x="1517.5" y="255" width="20" height="200" as="geometry" />
        </mxCell>
        <mxCell id="e9eDXrmeyJTS1PGcT-Jd-176" value="offline总资源&lt;br&gt;&lt;b&gt;10 core&lt;/b&gt;" style="rounded=0;whiteSpace=wrap;html=1;fillColor=#dae8fc;strokeColor=#6c8ebf;" vertex="1" parent="1">
          <mxGeometry x="1424" y="593" width="80" height="80" as="geometry" />
        </mxCell>
        <mxCell id="e9eDXrmeyJTS1PGcT-Jd-177" value="common-1&lt;br&gt;10core" style="rounded=0;whiteSpace=wrap;html=1;fillColor=#dae8fc;strokeColor=#6c8ebf;" vertex="1" parent="1">
          <mxGeometry x="1554" y="533" width="80" height="40" as="geometry" />
        </mxCell>
        <mxCell id="e9eDXrmeyJTS1PGcT-Jd-178" value="common-2&lt;br&gt;10core" style="rounded=0;whiteSpace=wrap;html=1;fillColor=#dae8fc;strokeColor=#6c8ebf;" vertex="1" parent="1">
          <mxGeometry x="1554" y="613" width="80" height="40" as="geometry" />
        </mxCell>
        <mxCell id="e9eDXrmeyJTS1PGcT-Jd-179" value="yarn&lt;br&gt;5core" style="rounded=0;whiteSpace=wrap;html=1;fillColor=#dae8fc;strokeColor=#6c8ebf;" vertex="1" parent="1">
          <mxGeometry x="1554" y="693" width="80" height="40" as="geometry" />
        </mxCell>
        <mxCell id="e9eDXrmeyJTS1PGcT-Jd-180" value="container&lt;br&gt;5core" style="rounded=0;whiteSpace=wrap;html=1;fillColor=#dae8fc;strokeColor=#6c8ebf;" vertex="1" parent="1">
          <mxGeometry x="1674" y="693" width="80" height="40" as="geometry" />
        </mxCell>
        <mxCell id="e9eDXrmeyJTS1PGcT-Jd-181" value="hadoopCpu&lt;br&gt;5core" style="rounded=0;whiteSpace=wrap;html=1;fillColor=#dae8fc;strokeColor=#6c8ebf;" vertex="1" parent="1">
          <mxGeometry x="1794" y="693" width="80" height="40" as="geometry" />
        </mxCell>
        <mxCell id="e9eDXrmeyJTS1PGcT-Jd-182" value="" style="shape=curlyBracket;whiteSpace=wrap;html=1;rounded=1;labelPosition=left;verticalLabelPosition=middle;align=right;verticalAlign=middle;" vertex="1" parent="1">
          <mxGeometry x="1517.5" y="533" width="20" height="200" as="geometry" />
        </mxCell>
        <mxCell id="e9eDXrmeyJTS1PGcT-Jd-183" value="wcloudAgent" style="shape=process;whiteSpace=wrap;html=1;backgroundOutline=1;fillColor=#b0e3e6;strokeColor=#0e8088;" vertex="1" parent="1">
          <mxGeometry x="1264" y="605" width="120" height="30" as="geometry" />
        </mxCell>
        <mxCell id="e9eDXrmeyJTS1PGcT-Jd-184" value="API-Server" style="shape=cylinder3;whiteSpace=wrap;html=1;boundedLbl=1;backgroundOutline=1;size=15;fillColor=#f5f5f5;fontColor=#333333;strokeColor=#666666;" vertex="1" parent="1">
          <mxGeometry x="1264" y="440" width="90" height="60" as="geometry" />
        </mxCell>
        <mxCell id="e9eDXrmeyJTS1PGcT-Jd-185" value="" style="endArrow=classic;startArrow=classic;html=1;rounded=0;" edge="1" parent="1">
          <mxGeometry width="50" height="50" relative="1" as="geometry">
            <mxPoint x="1314" y="580" as="sourcePoint" />
            <mxPoint x="1314" y="515" as="targetPoint" />
          </mxGeometry>
        </mxCell>
        <mxCell id="e9eDXrmeyJTS1PGcT-Jd-186" value="offline总资源Prediction&lt;br&gt;&lt;b&gt;15 core&lt;/b&gt;" style="rounded=0;whiteSpace=wrap;html=1;fillColor=#fff2cc;strokeColor=#d6b656;" vertex="1" parent="1">
          <mxGeometry x="1905" y="295" width="160" height="40" as="geometry" />
        </mxCell>
        <mxCell id="e9eDXrmeyJTS1PGcT-Jd-187" value="offline总资源&lt;br&gt;&lt;b&gt;&lt;font color=&quot;#ff3333&quot;&gt;15 core&lt;/font&gt;&lt;/b&gt;" style="rounded=0;whiteSpace=wrap;html=1;fillColor=#dae8fc;strokeColor=#6c8ebf;" vertex="1" parent="1">
          <mxGeometry x="2123.5" y="310" width="80" height="80" as="geometry" />
        </mxCell>
        <mxCell id="e9eDXrmeyJTS1PGcT-Jd-188" value="common-1&lt;br&gt;10core" style="rounded=0;whiteSpace=wrap;html=1;fillColor=#dae8fc;strokeColor=#6c8ebf;" vertex="1" parent="1">
          <mxGeometry x="2253.5" y="250" width="80" height="40" as="geometry" />
        </mxCell>
        <mxCell id="e9eDXrmeyJTS1PGcT-Jd-189" value="common-2&lt;br&gt;10core" style="rounded=0;whiteSpace=wrap;html=1;fillColor=#dae8fc;strokeColor=#6c8ebf;" vertex="1" parent="1">
          <mxGeometry x="2253.5" y="330" width="80" height="40" as="geometry" />
        </mxCell>
        <mxCell id="e9eDXrmeyJTS1PGcT-Jd-190" value="yarn&lt;br&gt;&lt;font color=&quot;#ff9999&quot;&gt;15core&lt;/font&gt;" style="rounded=0;whiteSpace=wrap;html=1;fillColor=#dae8fc;strokeColor=#6c8ebf;" vertex="1" parent="1">
          <mxGeometry x="2253.5" y="410" width="80" height="40" as="geometry" />
        </mxCell>
        <mxCell id="e9eDXrmeyJTS1PGcT-Jd-191" value="container&lt;br&gt;5core" style="rounded=0;whiteSpace=wrap;html=1;fillColor=#dae8fc;strokeColor=#6c8ebf;" vertex="1" parent="1">
          <mxGeometry x="2360.5" y="410" width="80" height="40" as="geometry" />
        </mxCell>
        <mxCell id="e9eDXrmeyJTS1PGcT-Jd-192" value="hadoopCpu&lt;br&gt;5core" style="rounded=0;whiteSpace=wrap;html=1;fillColor=#dae8fc;strokeColor=#6c8ebf;" vertex="1" parent="1">
          <mxGeometry x="2472.5" y="410" width="80" height="40" as="geometry" />
        </mxCell>
        <mxCell id="e9eDXrmeyJTS1PGcT-Jd-193" value="" style="shape=curlyBracket;whiteSpace=wrap;html=1;rounded=1;labelPosition=left;verticalLabelPosition=middle;align=right;verticalAlign=middle;" vertex="1" parent="1">
          <mxGeometry x="2217" y="250" width="20" height="200" as="geometry" />
        </mxCell>
        <mxCell id="e9eDXrmeyJTS1PGcT-Jd-196" value="offline总资源&lt;br&gt;watchDeal&lt;br&gt;&lt;b&gt;20 core&lt;/b&gt;" style="rounded=0;whiteSpace=wrap;html=1;fillColor=#fff2cc;strokeColor=#d6b656;" vertex="1" parent="1">
          <mxGeometry x="1905" y="523" width="150" height="50" as="geometry" />
        </mxCell>
        <mxCell id="e9eDXrmeyJTS1PGcT-Jd-197" value="" style="shape=flexArrow;endArrow=classic;html=1;rounded=0;" edge="1" parent="1">
          <mxGeometry width="50" height="50" relative="1" as="geometry">
            <mxPoint x="1890.25" y="376" as="sourcePoint" />
            <mxPoint x="2079.75" y="376" as="targetPoint" />
          </mxGeometry>
        </mxCell>
        <mxCell id="e9eDXrmeyJTS1PGcT-Jd-198" value="扩容" style="edgeLabel;html=1;align=center;verticalAlign=middle;resizable=0;points=[];" vertex="1" connectable="0" parent="e9eDXrmeyJTS1PGcT-Jd-197">
          <mxGeometry x="-0.1583" y="-2" relative="1" as="geometry">
            <mxPoint as="offset" />
          </mxGeometry>
        </mxCell>
        <mxCell id="e9eDXrmeyJTS1PGcT-Jd-199" value="offline总资源&lt;br&gt;&lt;b&gt;20 core&lt;/b&gt;" style="rounded=0;whiteSpace=wrap;html=1;fillColor=#dae8fc;strokeColor=#6c8ebf;" vertex="1" parent="1">
          <mxGeometry x="2104" y="575" width="80" height="80" as="geometry" />
        </mxCell>
        <mxCell id="e9eDXrmeyJTS1PGcT-Jd-200" value="common-1&lt;br&gt;10core" style="rounded=0;whiteSpace=wrap;html=1;fillColor=#dae8fc;strokeColor=#6c8ebf;" vertex="1" parent="1">
          <mxGeometry x="2234" y="515" width="80" height="40" as="geometry" />
        </mxCell>
        <mxCell id="e9eDXrmeyJTS1PGcT-Jd-201" value="common-2&lt;br&gt;10core" style="rounded=0;whiteSpace=wrap;html=1;fillColor=#dae8fc;strokeColor=#6c8ebf;" vertex="1" parent="1">
          <mxGeometry x="2234" y="595" width="80" height="40" as="geometry" />
        </mxCell>
        <mxCell id="e9eDXrmeyJTS1PGcT-Jd-202" value="yarn&lt;br&gt;5core" style="rounded=0;whiteSpace=wrap;html=1;fillColor=#dae8fc;strokeColor=#6c8ebf;" vertex="1" parent="1">
          <mxGeometry x="2234" y="675" width="80" height="40" as="geometry" />
        </mxCell>
        <mxCell id="e9eDXrmeyJTS1PGcT-Jd-203" value="container&lt;br&gt;5core" style="rounded=0;whiteSpace=wrap;html=1;fillColor=#dae8fc;strokeColor=#6c8ebf;" vertex="1" parent="1">
          <mxGeometry x="2354" y="675" width="80" height="40" as="geometry" />
        </mxCell>
        <mxCell id="e9eDXrmeyJTS1PGcT-Jd-204" value="hadoopCpu&lt;br&gt;5core" style="rounded=0;whiteSpace=wrap;html=1;fillColor=#dae8fc;strokeColor=#6c8ebf;" vertex="1" parent="1">
          <mxGeometry x="2474" y="675" width="80" height="40" as="geometry" />
        </mxCell>
        <mxCell id="e9eDXrmeyJTS1PGcT-Jd-205" value="" style="shape=curlyBracket;whiteSpace=wrap;html=1;rounded=1;labelPosition=left;verticalLabelPosition=middle;align=right;verticalAlign=middle;" vertex="1" parent="1">
          <mxGeometry x="2197.5" y="515" width="20" height="200" as="geometry" />
        </mxCell>
        <mxCell id="e9eDXrmeyJTS1PGcT-Jd-206" value="" style="shape=flexArrow;endArrow=classic;html=1;rounded=0;" edge="1" parent="1">
          <mxGeometry width="50" height="50" relative="1" as="geometry">
            <mxPoint x="1898.25" y="640" as="sourcePoint" />
            <mxPoint x="2087.75" y="640" as="targetPoint" />
          </mxGeometry>
        </mxCell>
        <mxCell id="e9eDXrmeyJTS1PGcT-Jd-207" value="直接调整" style="edgeLabel;html=1;align=center;verticalAlign=middle;resizable=0;points=[];" vertex="1" connectable="0" parent="e9eDXrmeyJTS1PGcT-Jd-206">
          <mxGeometry x="-0.1583" y="-2" relative="1" as="geometry">
            <mxPoint as="offset" />
          </mxGeometry>
        </mxCell>
        <mxCell id="e9eDXrmeyJTS1PGcT-Jd-208" value="offline总资源Prediction&lt;br&gt;&lt;b&gt;15 core&lt;/b&gt;" style="rounded=0;whiteSpace=wrap;html=1;fillColor=#fff2cc;strokeColor=#d6b656;" vertex="1" parent="1">
          <mxGeometry x="2644" y="545" width="160" height="40" as="geometry" />
        </mxCell>
        <mxCell id="e9eDXrmeyJTS1PGcT-Jd-209" value="" style="shape=flexArrow;endArrow=classic;html=1;rounded=0;" edge="1" parent="1">
          <mxGeometry width="50" height="50" relative="1" as="geometry">
            <mxPoint x="2584" y="640" as="sourcePoint" />
            <mxPoint x="2773.5" y="640" as="targetPoint" />
          </mxGeometry>
        </mxCell>
        <mxCell id="e9eDXrmeyJTS1PGcT-Jd-210" value="缩容" style="edgeLabel;html=1;align=center;verticalAlign=middle;resizable=0;points=[];" vertex="1" connectable="0" parent="e9eDXrmeyJTS1PGcT-Jd-209">
          <mxGeometry x="-0.1583" y="-2" relative="1" as="geometry">
            <mxPoint as="offset" />
          </mxGeometry>
        </mxCell>
        <mxCell id="e9eDXrmeyJTS1PGcT-Jd-212" value="offline总资源&lt;br&gt;&lt;b&gt;20 core&lt;/b&gt;" style="rounded=0;whiteSpace=wrap;html=1;fillColor=#dae8fc;strokeColor=#6c8ebf;" vertex="1" parent="1">
          <mxGeometry x="2844" y="570" width="80" height="80" as="geometry" />
        </mxCell>
        <mxCell id="e9eDXrmeyJTS1PGcT-Jd-213" value="common-1&lt;br&gt;10core" style="rounded=0;whiteSpace=wrap;html=1;fillColor=#dae8fc;strokeColor=#6c8ebf;" vertex="1" parent="1">
          <mxGeometry x="2974" y="510" width="80" height="40" as="geometry" />
        </mxCell>
        <mxCell id="e9eDXrmeyJTS1PGcT-Jd-214" value="common-2&lt;br&gt;10core" style="rounded=0;whiteSpace=wrap;html=1;fillColor=#dae8fc;strokeColor=#6c8ebf;" vertex="1" parent="1">
          <mxGeometry x="2974" y="590" width="80" height="40" as="geometry" />
        </mxCell>
        <mxCell id="e9eDXrmeyJTS1PGcT-Jd-215" value="yarn&lt;br&gt;5core" style="rounded=0;whiteSpace=wrap;html=1;fillColor=#dae8fc;strokeColor=#6c8ebf;" vertex="1" parent="1">
          <mxGeometry x="2974" y="670" width="80" height="40" as="geometry" />
        </mxCell>
        <mxCell id="e9eDXrmeyJTS1PGcT-Jd-216" value="container&lt;br&gt;5core" style="rounded=0;whiteSpace=wrap;html=1;fillColor=#dae8fc;strokeColor=#6c8ebf;" vertex="1" parent="1">
          <mxGeometry x="3094" y="670" width="80" height="40" as="geometry" />
        </mxCell>
        <mxCell id="e9eDXrmeyJTS1PGcT-Jd-217" value="&lt;font color=&quot;#ff0000&quot;&gt;hadoopCpu&lt;br&gt;5core-&amp;gt;15core&lt;/font&gt;" style="rounded=0;whiteSpace=wrap;html=1;fillColor=#dae8fc;strokeColor=#6c8ebf;" vertex="1" parent="1">
          <mxGeometry x="3214" y="670" width="80" height="40" as="geometry" />
        </mxCell>
        <mxCell id="e9eDXrmeyJTS1PGcT-Jd-218" value="" style="shape=curlyBracket;whiteSpace=wrap;html=1;rounded=1;labelPosition=left;verticalLabelPosition=middle;align=right;verticalAlign=middle;" vertex="1" parent="1">
          <mxGeometry x="2937.5" y="510" width="20" height="200" as="geometry" />
        </mxCell>
        <mxCell id="e9eDXrmeyJTS1PGcT-Jd-219" value="offline总资源&lt;br&gt;&lt;b&gt;10 core&lt;/b&gt;" style="rounded=0;whiteSpace=wrap;html=1;fillColor=#dae8fc;strokeColor=#6c8ebf;" vertex="1" parent="1">
          <mxGeometry x="18" y="554" width="80" height="80" as="geometry" />
        </mxCell>
        <mxCell id="e9eDXrmeyJTS1PGcT-Jd-220" value="common-1&lt;br&gt;10core" style="rounded=0;whiteSpace=wrap;html=1;fillColor=#dae8fc;strokeColor=#6c8ebf;" vertex="1" parent="1">
          <mxGeometry x="150" y="535" width="80" height="40" as="geometry" />
        </mxCell>
        <mxCell id="e9eDXrmeyJTS1PGcT-Jd-222" value="yarn&lt;br&gt;5core" style="rounded=0;whiteSpace=wrap;html=1;fillColor=#dae8fc;strokeColor=#6c8ebf;" vertex="1" parent="1">
          <mxGeometry x="150" y="615" width="80" height="40" as="geometry" />
        </mxCell>
        <mxCell id="e9eDXrmeyJTS1PGcT-Jd-223" value="container&lt;br&gt;5core" style="rounded=0;whiteSpace=wrap;html=1;fillColor=#dae8fc;strokeColor=#6c8ebf;" vertex="1" parent="1">
          <mxGeometry x="270" y="615" width="80" height="40" as="geometry" />
        </mxCell>
        <mxCell id="e9eDXrmeyJTS1PGcT-Jd-224" value="hadoopCpu&lt;br&gt;5core" style="rounded=0;whiteSpace=wrap;html=1;fillColor=#dae8fc;strokeColor=#6c8ebf;" vertex="1" parent="1">
          <mxGeometry x="390" y="615" width="80" height="40" as="geometry" />
        </mxCell>
        <mxCell id="e9eDXrmeyJTS1PGcT-Jd-225" value="" style="shape=curlyBracket;whiteSpace=wrap;html=1;rounded=1;labelPosition=left;verticalLabelPosition=middle;align=right;verticalAlign=middle;" vertex="1" parent="1">
          <mxGeometry x="113.5" y="533" width="20" height="122" as="geometry" />
        </mxCell>
        <mxCell id="e9eDXrmeyJTS1PGcT-Jd-226" value="offline总资源&lt;br&gt;watchDeal&lt;br&gt;&lt;b&gt;20 core&lt;/b&gt;" style="rounded=0;whiteSpace=wrap;html=1;fillColor=#fff2cc;strokeColor=#d6b656;" vertex="1" parent="1">
          <mxGeometry x="499" y="569" width="150" height="50" as="geometry" />
        </mxCell>
        <mxCell id="e9eDXrmeyJTS1PGcT-Jd-227" value="offline总资源&lt;br&gt;&lt;b&gt;20 core&lt;/b&gt;" style="rounded=0;whiteSpace=wrap;html=1;fillColor=#dae8fc;strokeColor=#6c8ebf;" vertex="1" parent="1">
          <mxGeometry x="670" y="553" width="80" height="80" as="geometry" />
        </mxCell>
        <mxCell id="e9eDXrmeyJTS1PGcT-Jd-228" value="common-1&lt;br&gt;20core" style="rounded=0;whiteSpace=wrap;html=1;fillColor=#dae8fc;strokeColor=#6c8ebf;" vertex="1" parent="1">
          <mxGeometry x="800" y="535" width="80" height="40" as="geometry" />
        </mxCell>
        <mxCell id="e9eDXrmeyJTS1PGcT-Jd-230" value="yarn&lt;br&gt;5core" style="rounded=0;whiteSpace=wrap;html=1;fillColor=#dae8fc;strokeColor=#6c8ebf;" vertex="1" parent="1">
          <mxGeometry x="800" y="615" width="80" height="40" as="geometry" />
        </mxCell>
        <mxCell id="e9eDXrmeyJTS1PGcT-Jd-231" value="container&lt;br&gt;5core" style="rounded=0;whiteSpace=wrap;html=1;fillColor=#dae8fc;strokeColor=#6c8ebf;" vertex="1" parent="1">
          <mxGeometry x="920" y="615" width="80" height="40" as="geometry" />
        </mxCell>
        <mxCell id="e9eDXrmeyJTS1PGcT-Jd-232" value="hadoopCpu&lt;br&gt;5core" style="rounded=0;whiteSpace=wrap;html=1;fillColor=#dae8fc;strokeColor=#6c8ebf;" vertex="1" parent="1">
          <mxGeometry x="1040" y="615" width="80" height="40" as="geometry" />
        </mxCell>
        <mxCell id="e9eDXrmeyJTS1PGcT-Jd-233" value="" style="shape=curlyBracket;whiteSpace=wrap;html=1;rounded=1;labelPosition=left;verticalLabelPosition=middle;align=right;verticalAlign=middle;" vertex="1" parent="1">
          <mxGeometry x="763.5" y="533" width="20" height="122" as="geometry" />
        </mxCell>
        <mxCell id="e9eDXrmeyJTS1PGcT-Jd-235" value="offline总资源&lt;br&gt;&lt;b&gt;20 core&lt;/b&gt;" style="rounded=0;whiteSpace=wrap;html=1;fillColor=#dae8fc;strokeColor=#6c8ebf;" vertex="1" parent="1">
          <mxGeometry x="18" y="741" width="80" height="80" as="geometry" />
        </mxCell>
        <mxCell id="e9eDXrmeyJTS1PGcT-Jd-236" value="common-1&lt;br&gt;10core" style="rounded=0;whiteSpace=wrap;html=1;fillColor=#dae8fc;strokeColor=#6c8ebf;" vertex="1" parent="1">
          <mxGeometry x="150" y="720" width="80" height="40" as="geometry" />
        </mxCell>
        <mxCell id="e9eDXrmeyJTS1PGcT-Jd-240" value="" style="shape=curlyBracket;whiteSpace=wrap;html=1;rounded=1;labelPosition=left;verticalLabelPosition=middle;align=right;verticalAlign=middle;" vertex="1" parent="1">
          <mxGeometry x="113.5" y="720" width="20" height="122" as="geometry" />
        </mxCell>
        <mxCell id="e9eDXrmeyJTS1PGcT-Jd-241" value="offline总资源&lt;br&gt;&lt;b&gt;20 core&lt;/b&gt;" style="rounded=0;whiteSpace=wrap;html=1;fillColor=#dae8fc;strokeColor=#6c8ebf;" vertex="1" parent="1">
          <mxGeometry x="18" y="901" width="80" height="80" as="geometry" />
        </mxCell>
        <mxCell id="e9eDXrmeyJTS1PGcT-Jd-243" value="yarn&lt;br&gt;10core" style="rounded=0;whiteSpace=wrap;html=1;fillColor=#dae8fc;strokeColor=#6c8ebf;" vertex="1" parent="1">
          <mxGeometry x="150" y="962" width="80" height="40" as="geometry" />
        </mxCell>
        <mxCell id="e9eDXrmeyJTS1PGcT-Jd-244" value="container&lt;br&gt;5core" style="rounded=0;whiteSpace=wrap;html=1;fillColor=#dae8fc;strokeColor=#6c8ebf;" vertex="1" parent="1">
          <mxGeometry x="270" y="962" width="80" height="40" as="geometry" />
        </mxCell>
        <mxCell id="e9eDXrmeyJTS1PGcT-Jd-245" value="hadoopCpu&lt;br&gt;5core" style="rounded=0;whiteSpace=wrap;html=1;fillColor=#dae8fc;strokeColor=#6c8ebf;" vertex="1" parent="1">
          <mxGeometry x="390" y="962" width="80" height="40" as="geometry" />
        </mxCell>
        <mxCell id="e9eDXrmeyJTS1PGcT-Jd-246" value="" style="shape=curlyBracket;whiteSpace=wrap;html=1;rounded=1;labelPosition=left;verticalLabelPosition=middle;align=right;verticalAlign=middle;" vertex="1" parent="1">
          <mxGeometry x="113.5" y="880" width="20" height="122" as="geometry" />
        </mxCell>
        <mxCell id="e9eDXrmeyJTS1PGcT-Jd-247" value="只有offlineCommon的场景：&lt;br style=&quot;font-size: 14px;&quot;&gt;底层所有的容器规格都比顶层offlineRoot小：&lt;br style=&quot;font-size: 14px;&quot;&gt;1.如果 offlineRoot &amp;gt;= Prediction&lt;br style=&quot;font-size: 14px;&quot;&gt;&lt;span style=&quot;font-size: 14px;&quot;&gt;&lt;span style=&quot;font-size: 14px;&quot;&gt;&amp;nbsp;&amp;nbsp;&amp;nbsp;&amp;nbsp;&lt;/span&gt;&lt;/span&gt;缩容&lt;br style=&quot;font-size: 14px;&quot;&gt;&lt;span style=&quot;font-size: 14px;&quot;&gt;&lt;span style=&quot;font-size: 14px;&quot;&gt;&amp;nbsp;&amp;nbsp;&amp;nbsp;&amp;nbsp;&lt;/span&gt;&lt;/span&gt;&lt;span style=&quot;font-size: 14px;&quot;&gt;&lt;span style=&quot;font-size: 14px;&quot;&gt;&amp;nbsp;&amp;nbsp;&amp;nbsp;&amp;nbsp;&lt;/span&gt;&lt;/span&gt;底层逐个判断执行扩缩容&lt;br style=&quot;font-size: 14px;&quot;&gt;&lt;span style=&quot;font-size: 14px;&quot;&gt;&lt;span style=&quot;white-space: pre;&quot;&gt;&amp;nbsp;&amp;nbsp;&amp;nbsp;&lt;span style=&quot;white-space: pre;&quot;&gt;&#x9;&lt;/span&gt;&lt;/span&gt;&lt;/span&gt;缩小offlineRoot&lt;br&gt;2. 如果 offlineRoot &amp;lt; Prediction&lt;br style=&quot;font-size: 14px;&quot;&gt;&lt;span style=&quot;font-size: 14px;&quot;&gt;&lt;span style=&quot;font-size: 14px;&quot;&gt;&amp;nbsp;&amp;nbsp;&amp;nbsp;&amp;nbsp;&lt;/span&gt;&lt;/span&gt;扩容&lt;br style=&quot;font-size: 14px;&quot;&gt;&lt;span style=&quot;font-size: 14px;&quot;&gt;&lt;span style=&quot;font-size: 14px;&quot;&gt;&amp;nbsp;&amp;nbsp;&amp;nbsp;&amp;nbsp;&lt;/span&gt;&lt;/span&gt;&lt;span style=&quot;font-size: 14px;&quot;&gt;&lt;span style=&quot;font-size: 14px;&quot;&gt;&amp;nbsp;&amp;nbsp;&amp;nbsp;&amp;nbsp;&lt;/span&gt;&lt;/span&gt;扩大offlineRoot&lt;br style=&quot;font-size: 14px;&quot;&gt;&lt;span style=&quot;font-size: 14px;&quot;&gt;&lt;span style=&quot;font-size: 14px;&quot;&gt;&amp;nbsp;&amp;nbsp;&amp;nbsp;&amp;nbsp;&lt;/span&gt;&lt;/span&gt;&lt;span style=&quot;font-size: 14px;&quot;&gt;&lt;span style=&quot;font-size: 14px;&quot;&gt;&amp;nbsp;&amp;nbsp;&amp;nbsp;&amp;nbsp;&lt;/span&gt;&lt;/span&gt;底层逐个判断执行扩缩容" style="text;html=1;align=left;verticalAlign=middle;resizable=0;points=[];autosize=1;strokeColor=none;fillColor=none;fontSize=14;" vertex="1" parent="1">
          <mxGeometry x="483.5" y="662" width="300" height="180" as="geometry" />
        </mxCell>
        <mxCell id="e9eDXrmeyJTS1PGcT-Jd-248" value="common-2&lt;br&gt;3core" style="rounded=0;whiteSpace=wrap;html=1;fillColor=#dae8fc;strokeColor=#6c8ebf;" vertex="1" parent="1">
          <mxGeometry x="150" y="802" width="80" height="40" as="geometry" />
        </mxCell>
        <mxCell id="e9eDXrmeyJTS1PGcT-Jd-249" value="prediction&lt;br&gt;2core" style="rounded=0;whiteSpace=wrap;html=1;fillColor=#d5e8d4;strokeColor=#82b366;" vertex="1" parent="1">
          <mxGeometry x="800" y="700" width="80" height="48" as="geometry" />
        </mxCell>
        <mxCell id="e9eDXrmeyJTS1PGcT-Jd-250" value="prediction&lt;br&gt;5core" style="rounded=0;whiteSpace=wrap;html=1;fillColor=#d5e8d4;strokeColor=#82b366;" vertex="1" parent="1">
          <mxGeometry x="800" y="770" width="80" height="48" as="geometry" />
        </mxCell>
        <mxCell id="e9eDXrmeyJTS1PGcT-Jd-251" value="prediction&lt;br&gt;15core" style="rounded=0;whiteSpace=wrap;html=1;fillColor=#d5e8d4;strokeColor=#82b366;" vertex="1" parent="1">
          <mxGeometry x="800" y="837" width="80" height="48" as="geometry" />
        </mxCell>
        <mxCell id="e9eDXrmeyJTS1PGcT-Jd-254" value="yarn&lt;br&gt;10core" style="rounded=0;whiteSpace=wrap;html=1;fillColor=#dae8fc;strokeColor=#6c8ebf;" vertex="1" parent="1">
          <mxGeometry x="150" y="880" width="80" height="40" as="geometry" />
        </mxCell>
        <mxCell id="e9eDXrmeyJTS1PGcT-Jd-255" value="container&lt;br&gt;5core" style="rounded=0;whiteSpace=wrap;html=1;fillColor=#dae8fc;strokeColor=#6c8ebf;" vertex="1" parent="1">
          <mxGeometry x="270" y="880" width="80" height="40" as="geometry" />
        </mxCell>
        <mxCell id="e9eDXrmeyJTS1PGcT-Jd-256" value="hadoopCpu&lt;br&gt;5core" style="rounded=0;whiteSpace=wrap;html=1;fillColor=#dae8fc;strokeColor=#6c8ebf;" vertex="1" parent="1">
          <mxGeometry x="390" y="880" width="80" height="40" as="geometry" />
        </mxCell>
        <mxCell id="e9eDXrmeyJTS1PGcT-Jd-257" value="如果只有yarn的场景：&lt;br&gt;1.如果 offlineRoot &amp;gt;= Prediction&lt;br style=&quot;border-color: var(--border-color); font-size: 14px;&quot;&gt;&lt;span style=&quot;border-color: var(--border-color); font-size: 14px;&quot;&gt;&amp;nbsp;&amp;nbsp;&amp;nbsp;&amp;nbsp;&lt;/span&gt;&lt;span style=&quot;font-size: 14px;&quot;&gt;缩容&lt;/span&gt;&lt;br style=&quot;border-color: var(--border-color); font-size: 14px;&quot;&gt;&lt;span style=&quot;border-color: var(--border-color); font-size: 14px;&quot;&gt;&amp;nbsp;&amp;nbsp;&amp;nbsp;&amp;nbsp;&lt;/span&gt;&lt;span style=&quot;border-color: var(--border-color); font-size: 14px;&quot;&gt;&amp;nbsp;&amp;nbsp;&amp;nbsp;&amp;nbsp;&lt;/span&gt;&lt;span style=&quot;font-size: 14px;&quot;&gt;底层逐个判断执行扩缩容&lt;/span&gt;&lt;br style=&quot;border-color: var(--border-color); font-size: 14px;&quot;&gt;&lt;span style=&quot;border-color: var(--border-color); font-size: 14px;&quot;&gt;&lt;span style=&quot;border-color: var(--border-color);&quot;&gt;&amp;nbsp;&amp;nbsp;&amp;nbsp;&lt;span style=&quot;border-color: var(--border-color);&quot;&gt;&lt;span style=&quot;white-space: pre;&quot;&gt;&amp;nbsp;&amp;nbsp;&amp;nbsp;&amp;nbsp;&lt;/span&gt;&lt;/span&gt;&lt;/span&gt;&lt;/span&gt;&lt;span style=&quot;font-size: 14px;&quot;&gt;缩小offlineRoot&lt;/span&gt;&lt;br style=&quot;border-color: var(--border-color); font-size: 14px;&quot;&gt;&lt;span style=&quot;font-size: 14px;&quot;&gt;2. 如果 offlineRoot &amp;lt; Prediction&lt;/span&gt;&lt;br style=&quot;border-color: var(--border-color); font-size: 14px;&quot;&gt;&lt;span style=&quot;border-color: var(--border-color); font-size: 14px;&quot;&gt;&amp;nbsp;&amp;nbsp;&amp;nbsp;&amp;nbsp;&lt;/span&gt;&lt;span style=&quot;font-size: 14px;&quot;&gt;扩容&lt;/span&gt;&lt;br style=&quot;border-color: var(--border-color); font-size: 14px;&quot;&gt;&lt;span style=&quot;border-color: var(--border-color); font-size: 14px;&quot;&gt;&amp;nbsp;&amp;nbsp;&amp;nbsp;&amp;nbsp;&lt;/span&gt;&lt;span style=&quot;border-color: var(--border-color); font-size: 14px;&quot;&gt;&amp;nbsp;&amp;nbsp;&amp;nbsp;&amp;nbsp;&lt;/span&gt;&lt;span style=&quot;font-size: 14px;&quot;&gt;扩大offlineRoot&lt;/span&gt;&lt;br style=&quot;border-color: var(--border-color); font-size: 14px;&quot;&gt;&lt;span style=&quot;border-color: var(--border-color); font-size: 14px;&quot;&gt;&amp;nbsp;&amp;nbsp;&amp;nbsp;&amp;nbsp;&lt;/span&gt;&lt;span style=&quot;border-color: var(--border-color); font-size: 14px;&quot;&gt;&amp;nbsp;&amp;nbsp;&amp;nbsp;&amp;nbsp;&lt;/span&gt;&lt;span style=&quot;font-size: 14px;&quot;&gt;底层逐个判断执行扩缩容&lt;/span&gt;" style="text;html=1;align=left;verticalAlign=middle;resizable=0;points=[];autosize=1;strokeColor=none;fillColor=none;" vertex="1" parent="1">
          <mxGeometry x="514" y="861" width="220" height="160" as="geometry" />
        </mxCell>
      </root>
    </mxGraphModel>
  </diagram>
</mxfile>
